<?xml version="1.0" standalone="no"?>
<!DOCTYPE svg PUBLIC "-//W3C//DTD SVG 1.1//EN" "http://www.w3.org/Graphics/SVG/1.1/DTD/svg11.dtd" >
<svg xmlns="http://www.w3.org/2000/svg">
<metadata>
This is a custom SVG webfont generated by Font Squirrel.
Copyright   : Copyright c 2011 by Fontsmith Ltd All rights reserved
Designer    : JSmith FMello PGarnham
Foundry     : Fontsmith Ltd
Foundry URL : httpwwwfontsmithcom
</metadata>
<defs>
<font id="BankiaBold" horiz-adv-x="1105" >
<font-face units-per-em="2048" ascent="1536" descent="-512" />
<missing-glyph horiz-adv-x="460" />
<glyph unicode=" "  horiz-adv-x="460" />
<glyph unicode="&#x09;" horiz-adv-x="460" />
<glyph unicode="&#xa0;" horiz-adv-x="460" />
<glyph unicode="!" horiz-adv-x="440" d="M74 119v10q0 68 39 101.5t100 33.5h8q137 0 137 -135v-10q0 -66 -36.5 -101.5t-100.5 -35.5h-8q-139 0 -139 137zM82 1280q-2 43 15.5 61.5t72.5 18.5h102q57 0 72.5 -17.5t13.5 -62.5l-30 -862q-2 -41 -22.5 -54.5t-67.5 -13.5h-41q-47 0 -64.5 12.5t-19.5 53.5z" />
<glyph unicode="&#x22;" horiz-adv-x="931" d="M94 1427q-4 43 35 43h207q39 0 35 -43l-25 -495q0 -37 -35 -37h-159q-33 0 -33 37zM561 1427q-4 43 35 43h207q39 0 35 -43l-25 -495q0 -37 -35 -37h-160q-33 0 -32 37z" />
<glyph unicode="#" horiz-adv-x="1314" d="M3 375.5q-7 15.5 5 64.5l17 70q8 39 23 51t52 12h185l34 150h-186q-39 0 -46 15.5t5 64.5l17 69q8 39 23 51.5t52 12.5h185l75 336q12 57 93 57h102q49 0 61.5 -11t1.5 -52l-75 -330h168l75 336q12 57 93 57h104q47 0 58.5 -11t2.5 -52l-75 -330h213q39 0 46 -15.5 t-5 -64.5l-17 -70q-8 -39 -23.5 -51t-52.5 -12h-210l-35 -150h213q39 0 46 -15t-5 -64l-17 -70q-8 -39 -23.5 -51.5t-52.5 -12.5h-208l-70 -303q-8 -33 -24.5 -45t-51.5 -12h-119q-43 0 -56 14.5t-5 48.5l68 297h-168l-70 -303q-8 -35 -24.5 -46t-57.5 -11h-113 q-47 0 -59 11.5t-2 51.5l68 297h-189q-39 0 -46 15.5zM543 573h168l34 150h-167z" />
<glyph unicode="$" d="M115 113l22 120q4 25 23.5 33t40.5 -2q139 -57 270 -69v389l-29 6q-182 41 -249 117q-78 84 -78 249v27q0 193 118 283q90 66 265 75v150q0 23 8 30t37 7h57q29 0 37 -7.5t8 -29.5v-150q137 -8 254 -43q47 -14 35 -59l-31 -129q-8 -43 -63 -25q-100 31 -195 41v-348 l41 -8q182 -39 252 -125q61 -78 61 -235v-31q0 -203 -110 -301q-88 -80 -271 -92v-138q0 -23 -8 -29.5t-37 -6.5h-57q-29 0 -37 7t-8 29v136q-172 8 -317 63q-29 10 -37 23.5t-2 42.5zM367 961q0 -72 32 -105q29 -29 99 -47v317q-57 -8 -84 -26q-47 -31 -47 -123v-16z M618 201q55 8 89 37q41 33 41 133v16q0 78 -25 109q-27 33 -105 55v-350z" />
<glyph unicode="%" horiz-adv-x="1822" d="M129 956v21q0 209 92 297q76 70 211 69.5t211 -69.5q92 -90 92 -297v-21q0 -205 -92 -294q-76 -72 -211 -72t-211 72q-92 87 -92 294zM362 958q0 -102 15.5 -140t54.5 -38q37 0 52.5 38t15.5 140v17q0 102 -15.5 140t-52.5 38q-39 0 -54.5 -38t-15.5 -140v-17zM424 55 l723 1241q27 47 88 47h123q74 0 33 -73l-723 -1241q-27 -47 -88 -47h-123q-74 -1 -33 73zM1087 348v21q0 209 93 297q76 70 211 69.5t211 -69.5q92 -90 92 -297v-21q0 -205 -92 -295q-76 -72 -211.5 -71.5t-210.5 71.5q-93 88 -93 295zM1321 350q0 -102 15.5 -140t54.5 -38 q37 0 52 38t15 140v17q0 102 -15.5 140t-51.5 38q-39 0 -54.5 -38t-15.5 -140v-17z" />
<glyph unicode="&#x26;" horiz-adv-x="1265" d="M57 340v33q0 106 69 199.5t175 138.5q-162 139 -162 288v23q0 143 108.5 232t289.5 89q178 0 283.5 -89t105.5 -226v-27q0 -217 -244 -356l231 -225q14 49 15 129v57q0 37 37 37h139q20 0 27.5 -8t7.5 -29v-98q0 -164 -49 -256l129 -123q27 -25 25.5 -40t-27.5 -42 l-72 -72q-25 -23 -40 -21.5t-38 23.5l-117 111q-147 -106 -377 -106h-36q-480 0 -480 358zM315 352q0 -84 65.5 -128t180.5 -44h31q129 0 203 58l-361 346q-119 -80 -119 -211v-21zM393 1006q0 -84 109 -189l49 -47q121 84 121 221v19q0 66 -36 101.5t-99 35.5 q-66 0 -105 -33t-39 -94v-14z" />
<glyph unicode="'" horiz-adv-x="464" d="M94 1427q-4 43 35 43h207q39 0 35 -43l-25 -495q0 -37 -35 -37h-159q-33 0 -33 37z" />
<glyph unicode="(" horiz-adv-x="655" d="M92 573q0 436 297 783q27 31 47.5 32t52.5 -18l62 -31q39 -20 47 -37.5t-10 -41.5q-238 -315 -238 -682q0 -195 53.5 -351.5t178.5 -322.5q25 -43 18.5 -55.5t-41.5 -30.5l-67 -35q-39 -23 -58.5 -21t-48.5 37q-293 358 -293 774z" />
<glyph unicode=")" horiz-adv-x="655" d="M53 -146.5q-4 15.5 21 50.5q127 164 179 321.5t52 352.5q0 367 -237 682q-18 25 -10 42t46 37l62 31q33 18 53.5 17t46.5 -31q297 -346 297 -783q0 -416 -293 -774q-29 -35 -44 -38t-50 16l-88 45q-31 16 -35 31.5z" />
<glyph unicode="*" horiz-adv-x="794" d="M66 1231l36 108q14 35 52 15l170 -72l-21 197q-4 23 1 34t28 11h133q23 0 28 -11.5t1 -33.5l-21 -197l170 72q41 23 51 -15l35 -108q12 -31 -18 -39l-207 -57l153 -156q41 -41 0 -68l-96 -61q-29 -14 -39 -9t-24 29l-101 183l-100 -183q-14 -25 -24.5 -29.5t-39.5 9.5 l-96 61q-41 27 0 68l154 156l-207 57q-30 6 -18 39z" />
<glyph unicode="+" d="M66 494v73q0 27 3 41.5t20 24.5t50 10h293v309q0 43 18.5 56.5t67.5 13.5h68q45 0 66.5 -13.5t21.5 -56.5v-309h293q47 0 60 -18.5t13 -57.5v-78q0 -33 -13 -50t-25.5 -19t-34.5 -2h-293v-314q0 -66 -88 -65h-74q-41 0 -60.5 14.5t-19.5 50.5v314h-293q-49 0 -61 16.5 t-12 59.5z" />
<glyph unicode="," horiz-adv-x="458" d="M51 -248q43 59 88 137q37 63 2 86l-22 15q-45 27 -45 100v62q0 119 137 118h39q135 0 135 -129v-39q0 -86 -55.5 -214t-130.5 -216q-18 -23 -32.5 -24.5t-45.5 14.5l-51 29q-48 26 -19 61z" />
<glyph unicode="-" horiz-adv-x="681" d="M68 496v69q0 39 15 57.5t62 18.5h392q47 0 62 -18.5t15 -57.5v-73q0 -33 -14 -50.5t-26.5 -19.5t-36.5 -2h-392q-49 0 -63 17.5t-14 58.5z" />
<glyph unicode="." horiz-adv-x="430" d="M74 113v32q0 129 131 129h22q129 0 129 -129v-32q0 -131 -129 -131h-22q-70 0 -100.5 31.5t-30.5 99.5z" />
<glyph unicode="/" horiz-adv-x="808" d="M61 14l437 1332q12 37 29.5 48t64.5 11h84q57 0 70.5 -11.5t1.5 -50.5l-437 -1331q-12 -37 -29.5 -48t-64.5 -11h-84q-57 0 -70.5 12t-1.5 49z" />
<glyph unicode="0" d="M70 637v53q0 653 483 653t483 -653v-53q0 -655 -483 -655t-483 655zM324 649q0 -100 7 -170.5t28.5 -142.5t70.5 -110t123 -38t123 38t70.5 110t28.5 142.5t7 170.5v27q0 100 -7 171t-28.5 142.5t-70.5 109.5t-123 38t-123 -38t-70.5 -109.5t-28.5 -142.5t-7 -171v-27z " />
<glyph unicode="1" d="M141 1077q-29 49 17 74l284 152q41 23 101 22h102q43 0 58.5 -13.5t15.5 -51.5v-1059h219q37 0 50 -14.5t13 -51.5v-74q0 -39 -11 -50t-52 -11h-719q-37 0 -50 14.5t-13 51.5v73q0 39 11 50.5t52 11.5h242v870h-12l-191 -98q-45 -25 -68 12z" />
<glyph unicode="2" d="M117 59v121q0 350 268 471l162 74q104 47 139 94t35 144v14q0 82 -43 120t-141 38q-131 0 -285 -62q-49 -18 -62 25l-26 106q-8 45 31 62q180 78 372 77q188 0 301 -84.5t113 -259.5v-28q0 -154 -63.5 -246t-210.5 -160l-152 -69q-104 -47 -148.5 -104.5t-44.5 -153.5 v-37h543q33 0 46.5 -11.5t13.5 -46.5v-90q0 -33 -13.5 -43t-46.5 -10h-715q-43 0 -58 12t-15 47z" />
<glyph unicode="3" d="M113 109l22 79q10 35 24.5 44.5t45.5 -1.5q135 -49 272 -49q141 0 201 54q51 45 51 145v16q0 104 -59 150q-57 45 -205 45h-82q-31 0 -40 9t-9 38v104q0 29 10 40.5t41 11.5h51q123 0 195 47q63 43 63 149v15q0 78 -51 110q-43 27 -131 27q-121 0 -268 -64 q-45 -20 -60 27l-26 98q-12 47 30 66q176 74 359 73q186 0 289 -69q117 -82 116 -252v-23q0 -233 -186 -290q221 -57 221 -308v-32q0 -176 -110 -279q-121 -109 -383 -108q-176 0 -340 51q-57 17 -41 76z" />
<glyph unicode="4" d="M33 362v64q0 29 53 115l469 725q23 37 41 48t53 11h170q47 0 63.5 -14.5t16.5 -57.5v-739h115q35 0 46 -13.5t11 -51.5v-80q0 -41 -9 -51.5t-48 -10.5h-115v-248q0 -35 -12.5 -47t-46.5 -12h-131q-35 0 -47.5 12.5t-12.5 46.5v248h-551q-37 0 -51 11t-14 44zM293 514h356 v543h-10z" />
<glyph unicode="5" d="M115 143l22 78q10 33 26.5 40t43.5 -5q172 -72 299 -72q137 0 192 47q57 49 58 175v22q0 113 -56 168q-53 53 -159 53q-115 0 -238 -55q-43 -20 -70 -4l-57 35q-25 14 -22 57l36 592q2 29 14.5 40t43.5 11h612q35 0 45 -10t10 -43v-103q0 -31 -10 -40t-49 -9h-424 q-27 0 -29 -26l-14 -283q96 41 219 41q205 0 303.5 -104.5t98.5 -303.5v-34q0 -205 -127 -324q-111 -104 -367 -104q-203 0 -383 81q-41 19 -18 80z" />
<glyph unicode="6" d="M92 604v82q0 350 146 508q76 84 172 116.5t233 32.5q147 0 260 -43q45 -16 35 -61l-27 -102q-12 -47 -61 -31q-98 33 -201 33q-141 0 -213 -84q-78 -90 -82 -277q115 74 260 74q190 0 295 -98q113 -104 113 -310v-30q0 -197 -117 -314q-123 -119 -336 -118 q-266 0 -371.5 156.5t-105.5 465.5zM350 571q0 -231 58 -317q49 -72 161 -72q92 0 146 54q53 55 53 167v25q0 104 -39 154q-45 61 -151 61q-128 0 -228 -72z" />
<glyph unicode="7" d="M115 1174v92q0 35 12 47t47 12h774q35 0 49.5 -10t14.5 -41v-62q0 -43 -60 -157l-499 -1010q-23 -45 -86 -45h-146q-70 0 -43 51l547 1069h-551q-35 0 -47 10.5t-12 43.5z" />
<glyph unicode="8" d="M80 338v24q0 100 56.5 184.5t150.5 133.5q-170 109 -170 305v12q0 158 120.5 252t323.5 94q182 0 306 -89t124 -246v-15q0 -190 -174 -301q115 -59 161 -135t46 -178v-25q0 -88 -38 -164.5t-99 -119.5q-123 -88 -326 -88q-221 0 -338 81q-143 99 -143 275zM340 367 q0 -94 59 -142q57 -45 162 -45q111 0 162 49q43 41 43 125v8q0 66 -52 110t-184 93l-79 31q-111 -72 -111 -221v-8zM367 991q0 -63 44 -107t152 -85l74 -29q96 74 96 203v12q0 86 -49 125q-43 39 -127 39q-86 0 -131 -35q-59 -43 -59 -113v-10z" />
<glyph unicode="9" d="M94 885v33q0 190 113 307q115 119 340 118q223 0 342 -120q135 -141 135 -510v-66q0 -352 -137 -508q-137 -158 -414 -157q-160 0 -276 41q-35 12 -27 49l27 114q6 27 17 32t38 -3q100 -29 217 -29q156 0 223 80q37 43 49.5 104.5t16.5 161.5q-111 -66 -246 -65 q-199 0 -303 98q-115 107 -115 320zM348 891q0 -104 39 -154q47 -61 152 -61q119 0 227 78q0 231 -57 317q-49 72 -162 72q-104 0 -156 -62q-43 -51 -43 -166v-24z" />
<glyph unicode=":" horiz-adv-x="487" d="M102 113v32q0 129 131 129h23q129 0 129 -129v-32q0 -131 -129 -131h-23q-70 0 -100.5 31.5t-30.5 99.5zM102 893v33q0 129 131 129h23q129 0 129 -129v-33q0 -131 -129 -131h-23q-70 0 -100.5 31.5t-30.5 99.5z" />
<glyph unicode=";" horiz-adv-x="458" d="M51 -248q43 59 88 137q37 63 2 86l-22 15q-45 27 -45 100v62q0 119 137 118h39q135 0 135 -129v-39q0 -86 -55.5 -214t-130.5 -216q-18 -23 -32.5 -24.5t-45.5 14.5l-51 29q-48 26 -19 61zM84 893v33q0 129 131 129h23q129 0 129 -129v-33q0 -131 -129 -131h-23 q-70 0 -100.5 31.5t-30.5 99.5z" />
<glyph unicode="&#x3c;" d="M94 508v51q0 45 37 66l698 370q41 20 56.5 19.5t32.5 -29.5l57 -104q29 -49 -41 -86l-492 -260l492 -261q70 -37 41 -86l-57 -104q-25 -45 -89 -10l-698 368q-37 21 -37 66z" />
<glyph unicode="=" d="M66 268v74q0 27 3 41t20 24.5t50 10.5h828q47 0 60 -18.5t13 -57.5v-78q0 -33 -13 -50t-25.5 -19t-34.5 -2h-828q-49 0 -61 16t-12 59zM66 719v74q0 27 3 41t20 24t50 10h828q47 0 60 -18.5t13 -56.5v-78q0 -33 -13 -50.5t-25.5 -19.5t-34.5 -2h-828q-49 0 -61 16.5 t-12 59.5z" />
<glyph unicode="&#x3e;" d="M124 829.5q-9 14.5 5 44.5l57 105q16 29 33 33t57 -17l699 -370q37 -20 37 -66v-51q0 -45 -37 -66l-699 -368q-63 -35 -88 10l-57 104q-29 49 41 86l492 261l-492 260q-39 20 -48 34.5z" />
<glyph unicode="?" horiz-adv-x="911" d="M63 1204q-14 49 33 68q168 72 348 71q190 0 296 -82.5t106 -248.5v-27q0 -201 -207 -340l-64 -43q-94 -61 -118 -88q-18 -20 -19 -121q0 -41 -51 -41h-113q-45 0 -45 41q0 147 19 189q31 66 145 141l66 43q74 47 104.5 93t30.5 114v22q0 76 -43 113q-43 35 -139 35 q-117 0 -256 -56q-49 -18 -66 29zM190 119v10q0 68 39 101.5t101 33.5h8q137 0 137 -135v-10q0 -66 -37 -101.5t-100 -35.5h-8q-140 0 -140 137z" />
<glyph unicode="@" horiz-adv-x="1652" d="M82 586q0 379 227.5 594t591.5 215q293 0 481.5 -163t188.5 -456q0 -233 -112.5 -368.5t-291.5 -135.5q-186 0 -249 107h-7q-55 -72 -172 -72h-14q-227 0 -227 223q0 86 24 230q47 260 264 260h13q129 0 186 -80l14 31q12 27 45 26h93q25 0 33 -7t6 -29l-50 -383 q-10 -82 -10 -99q0 -57 70 -57q72 0 121 88t49 238q0 223 -128 340.5t-345 117.5q-254 0 -403.5 -157.5t-149.5 -448.5q0 -477 522 -477q211 0 395 65q43 16 51 -24l19 -84q8 -43 -35 -57q-211 -84 -451 -84q-369 0 -559 166t-190 481zM721 541q0 -45 15.5 -63.5t51.5 -18.5 h11q45 0 67.5 30.5t32.5 98.5l23 164q14 109 -74 108h-12q-39 0 -59.5 -25.5t-31.5 -89.5q-24 -126 -24 -204z" />
<glyph unicode="A" horiz-adv-x="1165" d="M14 53q156 567 383 1198q16 47 43 60.5t92 13.5h101q66 0 94.5 -14.5t44.5 -59.5q197 -541 379 -1198q4 -14 4 -24q0 -16 -10 -21q-16 -8 -68 -8h-108q-41 0 -60.5 10t-27.5 43l-68 252h-459l-67 -252q-8 -33 -27.5 -43t-60.5 -10h-109q-27 0 -38 1t-26 6q-14 5 -14 13 q0 3 1 14t1 19zM414 520h340q-94 332 -158 543h-25q-63 -211 -157 -543z" />
<glyph unicode="B" horiz-adv-x="1140" d="M139 98v1143q0 45 14.5 62.5t57.5 23.5q121 16 270 16q266 0 389 -94q109 -84 109 -239v-33q0 -188 -158 -262q111 -29 174.5 -104.5t63.5 -196.5v-29q0 -186 -117 -279q-135 -106 -453 -106q-152 0 -274 10q-45 4 -60.5 22.5t-15.5 65.5zM397 248q0 -31 29 -35 q41 -6 109 -6q141 0 200.5 43t59.5 135v25q0 90 -64 137q-61 43 -184 43h-150v-342zM397 788h99q219 0 219 173v24q0 76 -47 113q-45 37 -150 37q-72 0 -98 -2q-23 -2 -23 -31v-314z" />
<glyph unicode="C" horiz-adv-x="1091" d="M98 621v81q0 219 39 342t139 203q123 96 359 96q211 0 366 -92q20 -11 21 -32q0 -12 -6 -27l-49 -123q-10 -24 -31 -24q-15 0 -35 12q-135 74 -266 73.5t-195 -63.5q-45 -45 -61.5 -134t-16.5 -251v-37q0 -291 70 -375q63 -76 230 -75q135 0 262 55q14 6 24 6 q28 0 37 -39l25 -98q6 -31 -1.5 -46.5t-41.5 -27.5q-160 -63 -336 -63q-279 0 -398 118q-74 74 -104.5 196t-30.5 325z" />
<glyph unicode="D" horiz-adv-x="1263" d="M139 86v1151q0 45 15.5 63.5t56.5 22.5q123 12 287 12q342 0 499 -137q168 -147 168 -477v-117q0 -330 -180 -471q-94 -74 -215 -103.5t-326 -29.5q-203 0 -233 2q-41 4 -56.5 21.5t-15.5 62.5zM397 254q0 -47 49 -47h64q215 0 303 94t88 322v90q0 236 -83 324.5 t-314 88.5q-51 0 -72 -2q-35 -2 -35 -37v-833z" />
<glyph unicode="E" horiz-adv-x="1040" d="M127 588v149q0 295 20 451q10 82 39 109.5t103 27.5h618q35 0 43 -9t8 -40v-113q0 -29 -9 -39t-42 -10h-475q-23 0 -32 -7t-11 -34q-8 -72 -8 -285h459q35 0 43 -9t8 -40v-112q0 -29 -9.5 -39t-41.5 -10h-459q0 -236 10 -326q2 -27 11.5 -34t31.5 -7h471q35 0 44 -9 t9 -40v-113q0 -29 -9 -39t-44 -10h-616q-74 0 -102.5 27.5t-39.5 109.5q-20 156 -20 451z" />
<glyph unicode="F" horiz-adv-x="1013" d="M135 51v1194q0 43 19.5 61.5t68.5 18.5h660q31 0 42 -10t11 -39v-113q0 -29 -11.5 -39t-41.5 -10h-463q-27 0 -27 -29v-311h459q31 0 40 -10t9 -39v-113q0 -29 -9 -39t-40 -10h-459v-512q0 -33 -10 -42t-45 -9h-148q-35 0 -45 9t-10 42z" />
<glyph unicode="G" horiz-adv-x="1214" d="M98 625v80q0 367 160 514q137 125 436 124q94 0 196.5 -23.5t164.5 -55.5q25 -13 24 -40q0 -11 -4 -24l-39 -117q-8 -30 -32 -30q-12 0 -29 8q-143 70 -295 69q-166 0 -234 -75q-84 -92 -84 -369v-45q0 -154 14.5 -233.5t51.5 -128.5q61 -84 236 -84q100 0 157 8 q33 6 33 39v297h-152q-33 0 -44 10t-11 37v114q0 29 11.5 40.5t43.5 11.5h361q49 0 49 -52v-594q0 -37 -10 -53t-43 -24q-176 -47 -383 -47q-168 0 -269.5 29.5t-168.5 97.5q-140 137 -140 516z" />
<glyph unicode="H" horiz-adv-x="1294" d="M139 51v1223q0 33 10.5 42t45.5 9h147q35 0 45 -9t10 -42v-496h500v496q0 33 10.5 42t44.5 9h148q35 0 45 -9t10 -42v-1223q0 -33 -10 -42t-45 -9h-148q-35 0 -45 9t-10 42v516h-500v-516q0 -33 -10 -42t-45 -9h-147q-35 0 -45.5 9t-10.5 42z" />
<glyph unicode="I" horiz-adv-x="552" d="M147 51v1223q0 33 10.5 42t45.5 9h147q35 0 45.5 -9t10.5 -42v-1223q0 -33 -10.5 -42t-45.5 -9h-147q-35 0 -45.5 9t-10.5 42z" />
<glyph unicode="J" horiz-adv-x="802" d="M27 51v111q0 33 9 43t44 10h190q86 0 117 51q25 41 25 166v842q0 33 10 42t45 9h147q35 0 45.5 -9t10.5 -42v-852q0 -229 -84 -322q-92 -100 -293 -100h-213q-35 0 -44 10t-9 41z" />
<glyph unicode="K" horiz-adv-x="1202" d="M139 51v1223q0 33 10.5 42t45.5 9h147q35 0 45 -9t10 -42v-488h66q31 0 47 25l330 473q27 41 82 41h170q33 0 42 -16.5t-12 -42.5l-401 -545v-8q109 -127 231.5 -315.5t198.5 -346.5q7 -15 7 -25q0 -26 -44 -26h-182q-27 0 -39 7t-25 32q-143 270 -327 512q-20 25 -58 24 h-86v-524q0 -33 -10 -42t-45 -9h-147q-35 0 -45.5 9t-10.5 42z" />
<glyph unicode="L" horiz-adv-x="892" d="M139 80v1194q0 33 10.5 42t45.5 9h147q35 0 45 -9t10 -42v-1034q0 -29 27 -29h356q35 0 45.5 -9t10.5 -40v-113q0 -29 -10.5 -39t-45.5 -10h-553q-49 0 -68.5 18.5t-19.5 61.5z" />
<glyph unicode="M" horiz-adv-x="1607" d="M113 47q31 981 45 1213q2 45 21.5 55t80.5 10h137q66 0 86.5 -9t32.5 -50q176 -541 283 -838h10q152 403 287 836q14 41 33.5 51t82.5 10h138q59 0 78.5 -11t21.5 -57q45 -642 45 -1219q0 -24 -9 -31q-11 -7 -50 -7h-138q-27 0 -37 2t-16 12.5t-6 32.5v300 q0 198 -1 356.5t-5 281.5h-10q-47 -137 -154.5 -444.5t-116.5 -329.5q-4 -10 -8 -17.5t-7 -11.5t-10 -8t-10.5 -5t-13.5 -2t-14 -1h-18h-17h-96h-10q-27 0 -39.5 1t-25.5 11t-21 33q-121 299 -279 774h-10q-4 -162 -4 -512v-426q0 -33 -10.5 -40t-49.5 -7h-137 q-20 0 -29.5 1t-17.5 5t-10 13.5t-2 27.5z" />
<glyph unicode="N" horiz-adv-x="1314" d="M139 51v1223q0 33 10.5 42t45.5 9h122q70 0 101 -49l510 -844h8v842q0 33 10 42t45 9h129q35 0 45.5 -9t10.5 -42v-1223q0 -33 -10.5 -42t-45.5 -9h-123q-70 0 -100 49l-510 825h-8v-823q0 -33 -10.5 -42t-44.5 -9h-129q-35 0 -45.5 9t-10.5 42z" />
<glyph unicode="O" horiz-adv-x="1265" d="M98 621v84q0 346 148 505q127 133 387 133q254 0 383 -133q152 -154 151 -505v-84q0 -352 -151 -506q-129 -133 -383 -133q-260 0 -387 133q-148 160 -148 506zM362 641q0 -264 68 -362q57 -84 202.5 -84t203.5 84q68 102 67 362v43q0 262 -67 363q-57 84 -203 83.5 t-203 -83.5q-68 -98 -68 -363v-43z" />
<glyph unicode="P" horiz-adv-x="1126" d="M139 51v1194q0 45 15.5 63.5t56.5 22.5q96 12 313 12q279 0 398 -94q121 -94 120 -317v-37q0 -223 -133 -328q-131 -102 -393 -102h-119v-414q0 -33 -10 -42t-45 -9h-147q-35 0 -45.5 9t-10.5 42zM397 680h127q139 0 196.5 50t57.5 175v27q0 113 -53 158q-57 45 -195 45 q-80 0 -110 -5q-23 -4 -23 -28v-422z" />
<glyph unicode="Q" horiz-adv-x="1265" d="M98 621v84q0 346 148 505q127 133 387 133q254 0 383 -133q152 -154 151 -505v-84q0 -352 -151 -506q-90 -92 -223 -115q106 -131 262 -213q30 -17 30 -35q0 -15 -20 -31l-107 -79q-20 -16 -40 -16q-19 0 -39 14q-90 59 -177.5 152t-148.5 194q-199 14 -307 129 q-148 160 -148 506zM362 641q0 -264 68 -362q57 -84 202.5 -84t203.5 84q68 102 67 362v43q0 262 -67 363q-57 84 -203 83.5t-203 -83.5q-68 -98 -68 -363v-43z" />
<glyph unicode="R" horiz-adv-x="1148" d="M139 51v1190q0 45 14.5 62.5t57.5 23.5q121 16 297 16q295 0 420 -96q104 -84 104 -289v-34q0 -289 -248 -375q172 -213 310 -506q5 -12 5 -20q0 -23 -36 -23h-168q-29 0 -43 9t-29 36q-154 297 -274 459q-16 18 -43 18h-109v-471q0 -33 -10 -42t-45 -9h-147 q-35 0 -45.5 9t-10.5 42zM397 733h90q170 0 224 39q57 41 57 156v24q0 100 -41 140q-45 43 -203 43q-76 0 -102 -5q-25 -2 -25 -28v-369z" />
<glyph unicode="S" horiz-adv-x="1044" d="M80 956v27q0 193 119 283q106 78 338 77q180 0 329 -47q27 -8 34 -20t1 -39l-31 -129q-6 -30 -34 -30q-12 0 -29 5q-147 47 -264 47t-164 -30q-47 -33 -47 -123v-16q0 -72 33 -105q35 -35 137 -55l149 -31q182 -39 252 -125q61 -78 62 -235v-31q0 -203 -111 -301 q-109 -96 -375 -96q-170 0 -352 59q-31 10 -40 23.5t-3 41.5l22 119q6 38 35 38q10 0 23 -5q170 -63 309 -63q145 0 199 45q41 33 41 131v16q0 78 -25 109q-31 37 -139 63l-141 31q-182 41 -250 117q-78 83 -78 249z" />
<glyph unicode="T" horiz-adv-x="987" d="M27 1163v113q0 29 10 39t41 10h831q31 0 41.5 -10t10.5 -39v-113q0 -29 -9.5 -39t-42.5 -10h-286v-1063q0 -33 -10.5 -42t-45.5 -9h-147q-35 0 -45 9t-10 42v1063h-287q-33 0 -42 10t-9 39z" />
<glyph unicode="U" horiz-adv-x="1257" d="M123 449v825q0 33 10 42t45 9h148q35 0 45 -9t10 -42v-813q0 -143 55 -199q61 -68 193 -67q129 0 194 67q53 59 54 199v813q0 33 10 42t45 9h147q35 0 45.5 -9t10.5 -42v-825q0 -238 -123 -353q-119 -115 -383 -114q-262 0 -381 114q-125 117 -125 353z" />
<glyph unicode="V" horiz-adv-x="1128" d="M29 1278q-2 9 -2 17q0 13 7 20q11 10 46 10h141q35 0 47.5 -8t20.5 -39q129 -584 268 -999h14q139 416 269 999q8 31 20 39t47 8h142q35 0 46 -10q7 -7 7 -20q0 -7 -2 -17q-137 -582 -359 -1212q-12 -37 -34.5 -51.5t-69.5 -14.5h-145q-47 0 -70 14.5t-35 51.5 q-221 630 -358 1212z" />
<glyph unicode="W" horiz-adv-x="1669" d="M27 1278q-1 7 -1 13q0 16 8 24q11 10 44 10h141q35 0 48.5 -8t19.5 -39q121 -694 184 -1010h10q33 143 104.5 481t96.5 447q8 33 25.5 44t58.5 11h137q41 0 58.5 -11t25.5 -44q25 -109 96.5 -446.5t104.5 -481.5h10q63 315 184 1010q6 31 19.5 39t48.5 8h141q33 0 44 -10 q8 -8 9 -24q0 -6 -2 -13q-162 -825 -258 -1221q-8 -35 -30.5 -46t-73.5 -11h-145q-51 0 -74 11.5t-31 45.5q-98 375 -190 850h-11q-92 -475 -190 -850q-8 -35 -30.5 -46t-73.5 -11h-146q-51 0 -73.5 11.5t-30.5 45.5q-96 396 -258 1221z" />
<glyph unicode="X" horiz-adv-x="1179" d="M35 51q37 102 126 272.5t173 303.5q18 31 18 53t-18 53q-182 291 -277 541q-4 12 -4 22q0 29 43 29h166q33 0 47.5 -8t24.5 -35q133 -330 205 -455q16 -27 23 -33t24 -6h10q16 0 23.5 6.5t23.5 32.5q66 115 203 455q10 27 24.5 35t47.5 8h165q43 0 44 -29q0 -9 -5 -22 q-94 -250 -276 -541q-18 -31 -18.5 -53.5t18.5 -52.5q84 -133 173 -303t126 -273q4 -12 4 -22q0 -29 -43 -29h-166q-33 0 -47 8t-25 35q-129 319 -225 481q-16 27 -23.5 33t-23.5 6h-10q-16 0 -23.5 -6t-23.5 -33q-41 -72 -114 -224.5t-114 -256.5q-10 -27 -24.5 -35 t-46.5 -8h-166q-43 0 -44 29q1 10 5 22z" />
<glyph unicode="Y" horiz-adv-x="1021" d="M29 1282q-3 10 -4 17q0 11 8 17q12 9 47 9h141q37 0 49.5 -6t18.5 -37q76 -328 215 -633h14q131 289 215 633q8 31 20.5 37t47.5 6h141q35 0 47 -9q7 -6 8 -17q0 -7 -4 -17q-150 -506 -354 -854v-377q0 -33 -10.5 -42t-44.5 -9h-148q-35 0 -45 9t-10 42v377 q-205 362 -352 854z" />
<glyph unicode="Z" horiz-adv-x="1046" d="M66 61v66q0 23 34 78l557 909h-493q-35 0 -45 10.5t-10 38.5v113q0 31 10 40t45 9h749q61 0 62 -51v-62q0 -33 -35 -92l-565 -909h516q35 0 45 -10.5t10 -38.5v-113q0 -31 -10 -40t-45 -9h-756q-39 0 -54 13t-15 48z" />
<glyph unicode="[" horiz-adv-x="655" d="M137 -121v1432q0 29 11.5 39t41.5 10h357q31 0 42 -10.5t11 -38.5v-113q0 -29 -11 -39t-42 -10h-172v-1108h172q31 0 42 -10.5t11 -38.5v-113q0 -29 -11 -39t-42 -10h-357q-31 0 -42 10t-11 39z" />
<glyph unicode="\" horiz-adv-x="851" d="M82 1343q-12 39 1 50.5t71 11.5h84q47 0 64 -11.5t30 -47.5l436 -1332q12 -37 -1 -49t-71 -12h-84q-47 0 -64.5 11t-29.5 48z" />
<glyph unicode="]" horiz-adv-x="655" d="M55 -8q0 29 11.5 39t42.5 10h172v1108h-172q-31 0 -42.5 10t-11.5 39v113q0 29 11.5 39t42.5 10h356q31 0 42 -10.5t11 -38.5v-1432q0 -29 -11 -39t-42 -10h-356q-31 0 -42.5 10t-11.5 39v113z" />
<glyph unicode="^" d="M76 684q-4 16 20 47l322 436q20 29 37.5 36t52.5 7h88q35 0 52.5 -7t37.5 -36l322 -436q25 -31 20.5 -47t-53.5 -45l-70 -41q-41 -23 -60.5 -18.5t-47.5 38.5l-244 304l-246 -304q-29 -35 -48 -39t-60 19l-70 41q-49 29 -53 45z" />
<glyph unicode="_" horiz-adv-x="1103" d="M66 -43q0 37 18 53.5t70 16.5h796q51 0 69.5 -16.5t18.5 -53.5v-47q0 -39 -18.5 -54.5t-69.5 -15.5h-796q-51 0 -69.5 15.5t-18.5 54.5v47z" />
<glyph unicode="`" horiz-adv-x="757" d="M132 1321q-3 14 13 39l72 102q25 37 64 11l327 -228q31 -20 2 -63l-43 -60q-29 -41 -73 -14l-332 182q-27 17 -30 31z" />
<glyph unicode="a" horiz-adv-x="1003" d="M74 276v48q0 166 86 237q90 76 299 76h73q45 0 115 -4v55q0 76 -35 105q-37 29 -141 28q-123 0 -252 -39q-9 -3 -16 -2q-27 0 -35 35l-18 96q-3 11 -3 20q0 32 33 42q152 49 309 49q199 0 295 -66q106 -74 107 -270v-647q0 -39 -43 -39h-94q-41 0 -49 37l-13 49h-4 q-59 -104 -225 -104h-76q-147 0 -225 65q-88 75 -88 229zM319 293q0 -63 31 -92q29 -25 90 -25h74q70 0 101.5 33t31.5 104v125q-70 4 -119 4h-71q-80 0 -107 -24q-31 -25 -31 -101v-24z" />
<glyph unicode="b" horiz-adv-x="1075" d="M123 338v997q0 31 11 41t46 10h129q35 0 46.5 -10t11.5 -41v-389h4q88 76 245 76q193 0 283 -104q94 -106 94 -377v-86q0 -262 -108 -371q-102 -102 -338 -102q-205 0 -297 59q-63 43 -95 109.5t-32 187.5zM367 373q0 -102 28 -144q43 -51 153.5 -51t153.5 55.5t43 235.5 v63q0 180 -38.5 235.5t-151.5 55.5q-100 0 -143 -37q-45 -39 -45 -137v-276z" />
<glyph unicode="c" horiz-adv-x="911" d="M82 477v62q0 283 123 389q111 94 307 94q176 0 315 -84q28 -17 29 -43q0 -13 -8 -29l-51 -102q-11 -24 -31 -24q-12 0 -29 10q-106 68 -215 67q-88 0 -137 -43q-27 -25 -40 -65.5t-14 -73.5t-1 -113v-33q0 -195 47 -251q51 -57 158 -58q111 0 206 43q18 8 31 9 q25 0 33 -31l26 -95q8 -27 0 -41t-43 -30q-106 -53 -296 -53q-193 0 -295 92q-68 61 -91.5 157t-23.5 246z" />
<glyph unicode="d" horiz-adv-x="1073" d="M82 457v84q0 260 117 377q104 104 309 104q117 0 194 -51h5v364q0 31 11 41t46 10h129q35 0 46 -10t11 -41v-973q0 -201 -92 -284q-109 -96 -338 -96q-219 0 -317 86q-121 106 -121 389zM330 471q0 -180 49 -240q45 -53 141 -53q104 0 148 45q39 41 39 152v268 q0 102 -41 139q-47 43 -138 43q-98 0 -147 -59q-51 -61 -51 -231v-64z" />
<glyph unicode="e" horiz-adv-x="972" d="M78 475v55q0 250 96 371t326 121q186 0 288 -92q104 -94 105 -346v-140q0 -33 -12.5 -46t-42.5 -13h-512q2 -121 51 -164q45 -41 180 -41q121 0 221 43q11 5 21 5q26 0 37 -38l26 -98q6 -23 -1 -35t-36 -22q-139 -53 -297 -53q-242 0 -344 104q-106 108 -106 389z M322 578h301q27 0 26 28q0 137 -39 182q-37 39 -118 39q-78 0 -117 -41q-53 -54 -53 -208z" />
<glyph unicode="f" horiz-adv-x="694" d="M29 844v86q0 25 7 32t34 11l114 20v80q0 106 19.5 162.5t66.5 97.5q82 72 269 72q104 0 182 -23q32 -8 32 -36q0 -6 -1 -13l-19 -112q-5 -31 -31 -31q-7 0 -16 2q-53 14 -115 14q-72 0 -106 -22q-37 -25 -37 -125v-55h190q27 0 37.5 -9.5t10.5 -36.5v-118 q0 -23 -10.5 -32t-41.5 -9h-186v-748q0 -31 -11 -41t-46 -10h-129q-35 0 -46.5 10t-11.5 41v748h-104q-29 0 -40 9t-11 36z" />
<glyph unicode="g" horiz-adv-x="1075" d="M82 469v70q0 254 98.5 368.5t308.5 114.5q182 0 269 -100h4l12 49q8 33 53 33h76q49 0 49 -48v-968q0 -186 -78 -267q-98 -104 -309 -104q-184 0 -323 53q-29 11 -29 38q0 7 2 16l27 106q7 28 34 28q10 0 23 -3q129 -39 233.5 -39t143.5 39q33 33 33 137v61 q-63 -72 -224 -71q-213 0 -308 113.5t-95 373.5zM330 477q0 -193 43 -246q41 -51 143 -51q106 0 152 53q41 47 41 152v238q0 109 -39 153q-45 47 -146 47q-98 0 -145 -47q-49 -49 -49 -252v-47z" />
<glyph unicode="h" horiz-adv-x="1075" d="M123 51v1284q0 31 11 41t46 10h129q35 0 46.5 -10t11.5 -41v-387q94 74 251 74q203 0 291 -143q53 -86 54 -269v-559q0 -31 -11.5 -41t-46.5 -10h-129q-35 0 -46 10t-11 41v572q0 117 -43 159.5t-131 42.5q-94 0 -135 -37q-43 -39 -43 -141v-596q0 -31 -11.5 -41 t-46.5 -10h-129q-35 0 -46 10t-11 41z" />
<glyph unicode="i" horiz-adv-x="501" d="M102 1251v13q0 70 40 105.5t104 35.5h10q143 0 143 -141v-13q0 -68 -40 -105.5t-103 -37.5h-10q-144 0 -144 143zM129 51v901q0 31 11.5 41.5t45.5 10.5h129q35 0 46.5 -10.5t11.5 -41.5v-901q0 -31 -11.5 -41t-46.5 -10h-129q-35 0 -46 10t-11 41z" />
<glyph unicode="j" horiz-adv-x="501" d="M-117 -193q0 39 41 39h31q100 0 135 41q41 47 41 197v868q0 31 11.5 41.5t45.5 10.5h129q35 0 46.5 -10.5t11.5 -41.5v-886q0 -227 -86 -328q-88 -100 -271 -100h-90q-45 0 -45 38v131zM102 1251v13q0 70 41 105.5t105 35.5h10q143 0 143 -141v-13q0 -68 -39.5 -105.5 t-103.5 -37.5h-10q-146 0 -146 143z" />
<glyph unicode="k" horiz-adv-x="1015" d="M123 51v1284q0 31 11 41t46 10h129q35 0 46.5 -10t11.5 -41v-700h41q29 0 47 24l225 312q23 33 68 33h165q29 0 36 -14.5t-7 -33.5l-315 -407v-4q182 -176 368 -492q9 -17 9 -28q0 -7 -3 -12q-8 -13 -34 -13h-154q-33 0 -47 7t-31 36q-129 213 -264 363q-20 23 -51 22 h-53v-377q0 -31 -11.5 -41t-46.5 -10h-129q-35 0 -46 10t-11 41z" />
<glyph unicode="l" horiz-adv-x="583" d="M121 250v1085q0 31 11 41t46 10h129q35 0 46.5 -10t11.5 -41v-1063q0 -37 13 -52t46 -15h61q27 0 37 -10.5t10 -38.5v-107q0 -29 -10 -39t-37 -10h-137q-117 0 -168 49q-59 60 -59 201z" />
<glyph unicode="m" horiz-adv-x="1650" d="M123 51v905q0 47 49 48h76q27 0 38 -7.5t15 -29.5l10 -49h6q104 104 271 104q193 0 284 -115q137 115 308 115q176 0 262 -86q96 -94 96 -303v-582q0 -31 -11 -41t-46 -10h-129q-35 0 -46.5 10t-11.5 41v572q0 113 -38.5 157.5t-133.5 44.5q-104 0 -172 -77q6 -51 6 -138 v-559q0 -31 -11 -41t-46 -10h-129q-35 0 -46 10t-11 41v572q0 117 -43 159.5t-129 42.5q-90 0 -131 -37q-43 -39 -43 -141v-596q0 -31 -11.5 -41t-46.5 -10h-129q-35 0 -46 10t-11 41z" />
<glyph unicode="n" horiz-adv-x="1075" d="M123 51v905q0 47 49 48h76q27 0 38 -7.5t15 -29.5l10 -49h6q100 104 279 104q219 0 311 -137q55 -86 56 -275v-559q0 -31 -11.5 -41t-46.5 -10h-129q-35 0 -46 10t-11 41v572q0 117 -43 159.5t-135 42.5q-90 0 -131 -37q-43 -39 -43 -141v-596q0 -31 -11.5 -41t-46.5 -10 h-129q-35 0 -46 10t-11 41z" />
<glyph unicode="o" horiz-adv-x="1024" d="M82 471v61q0 250 104 369q104 121 325.5 121t326.5 -121q104 -119 104 -369v-61q0 -250 -104 -369q-109 -121 -326 -120.5t-326 120.5q-104 119 -104 369zM330 481q0 -193 45 -250q45 -55 137 -55t137 55q45 57 45 250v43q0 190 -45 248q-43 55 -137 55t-137 -55 q-45 -57 -45 -248v-43z" />
<glyph unicode="p" horiz-adv-x="1077" d="M123 -311v1267q0 47 49 48h76q45 0 53 -33l10 -51h4q98 102 285 102q205 0 301 -111q94 -109 94 -362v-78q0 -262 -104 -379q-98 -111 -318 -110q-123 0 -206 55v-348q0 -31 -11.5 -41t-46.5 -10h-129q-35 0 -46 10t-11 41zM367 358q0 -98 43 -137q45 -41 141 -41 q100 0 147 58q49 59 50 233v59q0 180 -50 240q-45 53 -147 53t-145 -45q-39 -41 -39 -151v-269z" />
<glyph unicode="q" horiz-adv-x="1075" d="M82 469v70q0 254 98.5 368.5t308.5 114.5q182 0 269 -100h4l12 49q8 33 53 33h76q49 0 49 -48v-1267q0 -31 -11 -41t-46 -10h-129q-35 0 -46 10t-11 41v364q-63 -72 -224 -71q-213 0 -308 113.5t-95 373.5zM330 477q0 -193 43 -246q41 -51 143 -51q106 0 152 53 q41 47 41 152v238q0 109 -39 153q-45 47 -146 47q-98 0 -145 -47q-49 -49 -49 -252v-47z" />
<glyph unicode="r" horiz-adv-x="706" d="M123 51v905q0 47 49 48h72q49 0 53 -37l14 -97h4q49 72 109.5 103t163.5 31h28q33 0 45.5 -9.5t12.5 -40.5v-108q0 -27 -12.5 -37t-45.5 -10h-36q-121 0 -166 -51q-47 -55 -47 -175v-522q0 -31 -11.5 -41t-46.5 -10h-129q-35 0 -46 10t-11 41z" />
<glyph unicode="s" horiz-adv-x="886" d="M76 63q-3 6 -3 16t3 23l22 101q9 36 36 35q10 0 22 -5q137 -53 245 -53q98 0 134 25q35 23 34 80v14q0 47 -26.5 68.5t-91.5 38.5l-123 28q-123 29 -181 92q-61 68 -61 189v18q0 150 90 221q86 68 277 68q160 0 274 -41q20 -8 25.5 -17.5t1.5 -31.5l-25 -115 q-6 -30 -32 -29q-8 0 -19 3q-94 33 -199 32q-96 0 -127 -22q-29 -20 -28 -66v-14q0 -43 24.5 -61.5t79.5 -30.5l127 -29q147 -35 207 -111q45 -61 45 -170v-24q0 -141 -82 -221q-98 -92 -303 -92q-172 0 -313 59q-27 10 -33 22z" />
<glyph unicode="t" horiz-adv-x="741" d="M18 838v90q0 25 7.5 32t25.5 11l131 22v215q0 31 11.5 41.5t46.5 10.5h129q35 0 46 -10.5t11 -41.5v-204h203q27 0 35 -11.5t8 -42.5v-100q0 -51 -43 -51h-203v-447q0 -94 24.5 -120.5t96.5 -26.5h100q31 0 40 -10.5t9 -42.5v-101q0 -31 -8 -41t-41 -10h-147 q-168 0 -240 66q-78 72 -78 245v488h-123q-23 0 -32 8t-9 31z" />
<glyph unicode="u" horiz-adv-x="1044" d="M113 315v637q0 31 11 41.5t46 10.5h129q35 0 46 -10.5t11 -41.5v-612q0 -94 45 -127q37 -27 123 -27q88 0 123 27q41 33 41 127v612q0 31 11.5 41.5t45.5 10.5h129q35 0 46.5 -10.5t11.5 -41.5v-637q0 -193 -117 -268q-100 -66 -291 -65q-199 0 -295 65q-116 80 -116 268 z" />
<glyph unicode="v" horiz-adv-x="950" d="M23 956q-2 7 -2 14q0 34 49 34h135q45 0 57 -43q111 -420 209 -705h10q109 307 207 705q12 43 57 43h136q49 0 48 -34q0 -6 -1 -14q-115 -451 -293 -903q-20 -53 -86 -53h-146q-66 0 -86 53q-177 440 -294 903z" />
<glyph unicode="w" horiz-adv-x="1394" d="M23 956l-2 12q0 36 49 36h137q51 0 57 -43q72 -430 137 -705h7q53 221 139 639q8 37 24.5 48t61.5 11h129q45 0 61.5 -11t24.5 -48q86 -418 139 -639h6q74 322 137 705q6 43 58 43h137q48 0 48 -36q0 -5 -1 -12q-111 -561 -217 -903q-16 -53 -86 -53h-145q-70 0 -86 53 q-76 264 -136 619h-10q-57 -336 -135 -619q-16 -53 -86 -53h-145q-66 0 -86 53q-115 387 -217 903z" />
<glyph unicode="x" horiz-adv-x="972" d="M35 45q117 283 229 451q12 16 0 39q-104 154 -215 423q-5 12 -5 21q0 24 42 25h150q33 0 46 -7.5t21 -31.5q78 -219 137 -320q14 -25 37 -24h19q23 0 36 24q55 92 136 320q8 25 21 32t46 7h150q42 0 42 -25q0 -9 -5 -21q-104 -256 -213 -423q-12 -23 0 -39 q113 -168 229 -451q5 -12 5 -21q0 -24 -42 -24h-153q-33 0 -46.5 7t-21.5 32q-88 248 -148 348q-14 25 -36 25h-19q-23 0 -37 -25q-59 -100 -147 -348q-8 -25 -21.5 -32t-46.5 -7h-153q-42 0 -43 24q1 9 6 21z" />
<glyph unicode="y" horiz-adv-x="937" d="M23 956q-2 7 -2 14q0 34 49 34h139q49 0 57 -43q94 -406 203 -750h8q129 373 197 750q8 43 57 43h137q49 0 49 -34q0 -6 -2 -14q-143 -670 -436 -1302q-16 -37 -41 -37q-23 0 -47 10l-100 41q-28 14 -28 35q0 9 5 21q98 207 125 272q-88 27 -125 137q-128 368 -245 823z " />
<glyph unicode="z" horiz-adv-x="845" d="M41 55v47q0 45 43 109l385 588h-363q-33 0 -41 10t-8 39v104q0 31 8.5 41.5t40.5 10.5h635q27 0 36 -8.5t9 -34.5v-54q0 -39 -51 -116l-381 -586h420q27 0 37 -11.5t10 -39.5v-105q0 -27 -10 -38t-37 -11h-663q-41 0 -55.5 11t-14.5 44z" />
<glyph unicode="{" horiz-adv-x="729" d="M90 559v64q0 37 10.5 48t44.5 21q55 14 83 42t28 83v283q0 133 61.5 206.5t178.5 73.5h112q31 0 42.5 -10t11.5 -39v-112q0 -29 -11.5 -39.5t-42.5 -10.5h-69q-29 0 -37 -17t-8 -81v-240q0 -168 -123 -239v-6q63 -39 92 -94.5t31 -149.5v-229q0 -63 8 -82t33 -19h73 q31 0 42.5 -10t11.5 -39v-113q0 -29 -11.5 -39t-42.5 -10h-112q-117 0 -178.5 75t-61.5 208v268q0 61 -27.5 90t-89.5 50q-31 10 -40 22t-9 45z" />
<glyph unicode="|" horiz-adv-x="501" d="M131 23v1288q0 39 17.5 51t64.5 12h76q47 0 64.5 -12t17.5 -51v-1288q0 -39 -17.5 -51.5t-64.5 -12.5h-76q-47 0 -64.5 12.5t-17.5 51.5z" />
<glyph unicode="}" horiz-adv-x="729" d="M78 -37q0 29 11 39t42 10h74q25 0 33 18.5t8 82.5v229q2 94 30.5 149.5t92.5 94.5v6q-123 72 -123 239v240q0 63 -8.5 80.5t-36.5 17.5h-70q-31 0 -42 10.5t-11 39.5v112q0 29 11 39t42 10h113q117 0 178 -73.5t61 -206.5v-283q0 -55 28 -82.5t83 -42.5q35 -10 45 -21.5 t10 -47.5v-64q0 -33 -9 -45t-40 -22q-61 -20 -89 -49t-28 -91v-268q0 -133 -61.5 -208t-177.5 -75h-113q-31 0 -42 10.5t-11 38.5v113z" />
<glyph unicode="~" d="M29 604q74 141 154.5 196.5t176.5 55.5q78 0 189 -68l119 -73q59 -37 96 -37q59 0 123 119q18 31 35.5 38t52.5 -12l78 -43q37 -23 41 -40t-15 -50q-115 -256 -315 -256q-96 0 -186 58l-109 67q-66 43 -102 43q-70 0 -142 -121q-18 -31 -34.5 -35t-51.5 15l-104 55 q-39 20 -6 88z" />
<glyph unicode="&#xa1;" horiz-adv-x="444" d="M76 874v11q0 137 139 137h8q63 0 100 -36t37 -101v-11q0 -135 -137 -135h-8q-61 0 -100 33.5t-39 101.5zM84 -276l31 864q2 41 19.5 53t64.5 12h41q47 0 67.5 -13t22.5 -54l30 -862q2 -45 -13 -62.5t-73 -17.5h-102q-55 0 -72.5 18.5t-15.5 61.5z" />
<glyph unicode="&#xa2;" d="M168 477v62q0 283 123 389q94 82 266 92v147q0 23 8 30t37 7h57q29 0 37.5 -7t8.5 -30v-155q121 -23 215 -76q43 -25 20 -72l-51 -102q-20 -39 -60 -14q-61 39 -124 57v-617q70 10 122 35q51 25 64 -22l27 -95q8 -29 -0.5 -43t-43.5 -28q-72 -31 -169 -43v-144 q0 -23 -8.5 -29.5t-37.5 -6.5h-57q-29 0 -37 7t-8 29v134q-182 6 -274 92q-68 61 -91.5 157t-23.5 246zM416 489q0 -195 47 -251q33 -41 94 -52v627q-49 -8 -86 -39q-27 -25 -40 -65.5t-14 -73.5t-1 -113v-33z" />
<glyph unicode="&#xa3;" d="M94 53v66q0 29 8.5 41t38.5 33q76 51 110 113.5t34 158.5v100h-99q-37 0 -45 9.5t-8 41.5v64q0 37 9.5 49t37.5 16l105 17v192q0 203 92 296t295 93q158 0 297 -51q47 -16 30 -69l-26 -95q-14 -49 -55 -32q-115 43 -201 43q-102 0 -138 -42t-36 -151v-176h313 q39 0 47 -12.5t8 -61.5v-59q0 -49 -7 -60.5t-48 -11.5h-315v-80q0 -160 -109 -280h535q35 0 45 -12.5t10 -57.5v-76q0 -39 -9 -49t-44 -10h-819q-33 0 -44.5 12t-11.5 41z" />
<glyph unicode="&#xa4;" horiz-adv-x="1116" d="M72 211q-33 33 0 68l127 124q-45 86 -45 193q0 104 47 192l-129 127q-33 35 0 68l98 100q31 33 66 0l133 -129q86 45 188 45q100 0 191 -45l133 129q35 33 65 0l98 -100q33 -33 0 -68l-131 -129q47 -84 47.5 -190.5t-45.5 -192.5l129 -124q33 -35 0 -68l-98 -100 q-31 -33 -65 0l-131 127q-84 -45 -193 -45q-104 0 -190 45l-131 -127q-35 -33 -66 0zM381 596q0 -78 50 -127t126 -49t126 49t50 127t-50 127t-126 49t-126 -49t-50 -127z" />
<glyph unicode="&#xa5;" d="M70 1274q-14 51 51 51h141q33 0 46.5 -10t21.5 -41q66 -295 215 -656h14q147 352 215 656q8 31 21.5 41t46.5 10h141q66 0 51 -51q-104 -356 -254 -660h115q39 0 47 -13t8 -62v-39q0 -47 -8 -59.5t-47 -12.5h-213l-2 -4v-90h215q39 0 47 -13.5t8 -62.5v-35q0 -47 -8 -59 t-47 -12h-215v-93q0 -35 -12.5 -47t-46.5 -12h-140q-35 0 -47 12.5t-12 46.5v93h-213q-39 0 -47 12t-8 59v35q0 49 8 62.5t47 13.5h213v94h-213q-39 0 -47 12.5t-8 59.5v39q0 49 8 62t47 13h115q-152 308 -254 660z" />
<glyph unicode="&#xa6;" horiz-adv-x="501" d="M131 39v424q0 80 90 80h60q90 0 90 -80v-424q0 -80 -90 -80h-60q-90 0 -90 80zM131 901v424q0 80 90 80h60q90 0 90 -80v-424q0 -80 -90 -80h-60q-90 0 -90 80z" />
<glyph unicode="&#xa7;" horiz-adv-x="901" d="M92 631v16q0 111 92 176q-88 63 -88 207v17q0 154 127 215q100 49 238 49q139 0 258 -37q20 -8 25.5 -17.5t0.5 -31.5l-24 -115q-8 -39 -51 -27q-109 33 -197 33q-72 0 -104.5 -14.5t-32.5 -61.5v-10q0 -59 92 -76l121 -22q141 -27 200.5 -75t59.5 -155v-16 q0 -51 -27.5 -103.5t-74.5 -88.5q100 -57 100 -211v-17q0 -133 -94 -209q-100 -76 -293 -75q-145 0 -287 55q-27 10 -33 22.5t0 38.5l23 101q12 45 57 30q135 -49 240 -49q96 0 129 27q20 18 20 57v12q0 61 -106 84l-105 23q-137 29 -201.5 84t-64.5 164zM334 664 q0 -68 86 -84l104 -23q43 29 43 92v13q0 57 -94 75l-102 21q-37 -31 -37 -84v-10z" />
<glyph unicode="&#xa8;" horiz-adv-x="757" d="M92 1270v49q0 45 30 72.5t79 27.5h20q51 0 82 -27.5t31 -72.5v-49q0 -100 -113 -101h-20q-109 1 -109 101zM428 1270v49q0 45 29.5 72.5t79.5 27.5h18q51 0 81 -26.5t30 -73.5v-49q0 -100 -111 -101h-18q-109 1 -109 101z" />
<glyph unicode="&#xa9;" horiz-adv-x="1691" d="M82 712.5q0 323.5 207 532.5t555 209t555 -209t207 -532.5t-207 -532.5t-555 -209t-555 209t-207 532.5zM330 709q0 -231 133 -378t381 -147t381 146.5t133 378.5q0 238 -132 385t-382 147t-382 -147t-132 -385zM547 629v157q0 164 72.5 237t230.5 73q127 0 221 -49 q35 -18 19 -64l-25 -68q-16 -45 -64 -20q-57 31 -114 31q-63 0 -88 -30t-25 -108v-163q0 -35 6 -58.5t33 -43t76 -19.5q55 0 125 24q43 14 53 -24l25 -74q8 -27 -1.5 -39t-43.5 -24q-94 -35 -187 -35q-313 0 -313 297z" />
<glyph unicode="&#xaa;" horiz-adv-x="659" d="M49 770v25q0 104 53 149q57 49 195 49h47q27 0 72 -4v23q0 35 -21 55q-25 18 -90 18q-76 0 -153 -22q-31 -10 -37 18l-17 86q-6 31 27 41q92 31 209 31t182 -43q70 -49 70 -168v-410q0 -25 -25 -24h-90q-25 0 -29 20l-6 33h-2q-39 -66 -139 -65h-45q-98 0 -146 41 q-55 49 -55 147zM213 780q0 -41 20 -55q18 -14 52 -14h32q98 0 99 92v51q-45 4 -74 4h-45q-45 0 -64 -14q-20 -16 -20 -60v-4z" />
<glyph unicode="&#xab;" horiz-adv-x="1183" d="M41 469v16q0 47 39 80l315 258q35 29 58.5 31t54.5 -23l49 -43q57 -53 2 -102l-225 -209l225 -205q35 -35 32 -56t-34 -50l-49 -43q-29 -27 -52.5 -25t-60.5 31l-315 260q-39 33 -39 80zM571 469v16q0 47 39 80l316 258q35 29 58.5 31t53.5 -23l49 -43q57 -53 3 -102 l-226 -209l226 -205q35 -35 31.5 -56t-34.5 -50l-49 -43q-29 -27 -52 -25t-60 31l-316 260q-39 33 -39 80z" />
<glyph unicode="&#xac;" d="M66 494v73q0 27 3 41.5t20 24.5t50 10h815q86 0 86 -76v-432q0 -35 -18 -47t-68 -12h-73q-53 0 -68.5 11t-15.5 48v283h-658q-49 0 -61 16.5t-12 59.5z" />
<glyph unicode="&#xad;" horiz-adv-x="681" d="M68 496v69q0 39 15 57.5t62 18.5h392q47 0 62 -18.5t15 -57.5v-73q0 -33 -14 -50.5t-26.5 -19.5t-36.5 -2h-392q-49 0 -63 17.5t-14 58.5z" />
<glyph unicode="&#xae;" horiz-adv-x="1691" d="M82 712.5q0 323.5 207 532.5t555 209t555 -209t207 -532.5t-207 -532.5t-555 -209t-555 209t-207 532.5zM330 709q0 -231 133 -378t381 -147t381 146.5t133 378.5q0 238 -132 385t-382 147t-382 -147t-132 -385zM588 401v611q0 63 67 71q45 6 170 7q135 0 224.5 -55.5 t89.5 -182.5v-16q0 -117 -74 -174q-29 -25 -64 -39l148 -224q33 -55 -45 -55h-107q-47 0 -69 39l-121 213h-10v-195q0 -57 -66 -57h-78q-65 0 -65 57zM797 750h34q53 0 74 20q18 18 19 68v14q0 72 -80 72q-33 0 -47 -2v-172z" />
<glyph unicode="&#xaf;" horiz-adv-x="757" d="M109 1235v72q0 49 49 49h442q49 0 49 -49v-76q0 -45 -49 -45h-442q-49 0 -49 49z" />
<glyph unicode="&#xb0;" horiz-adv-x="755" d="M72 1229q0 127 90 218t213 91q129 0 219 -90t90 -219q0 -123 -91 -213t-218 -90q-121 0 -212 91t-91 212zM285 1229q0 -39 26.5 -67.5t63.5 -28.5q41 0 67.5 27.5t26.5 68.5q0 45 -26.5 72.5t-67.5 27.5q-37 0 -63.5 -28.5t-26.5 -71.5z" />
<glyph unicode="&#xb1;" d="M66 76v74q0 27 3 41t20 24t50 10h828q47 0 60 -18.5t13 -56.5v-78q0 -33 -13 -50.5t-25.5 -19.5t-34.5 -2h-828q-49 0 -61 16.5t-12 59.5zM66 766v74q0 27 3 41t20 24t50 10h293v281q0 43 18.5 56.5t67.5 13.5h68q45 0 66.5 -13.5t21.5 -56.5v-281h293q47 0 60 -18 t13 -57v-78q0 -33 -13 -50.5t-25.5 -19.5t-34.5 -2h-293v-266q0 -66 -88 -66h-74q-41 0 -60.5 14.5t-19.5 51.5v266h-293q-49 0 -61 16.5t-12 59.5z" />
<glyph unicode="&#xb2;" horiz-adv-x="819" d="M137 932v80q0 199 156 274l100 49q47 23 64.5 41.5t17.5 46.5v7q0 53 -84 53q-86 0 -158 -27q-20 -8 -30 -1t-19 40l-16 72q-12 53 25 65q100 37 235 37q123 0 187.5 -58.5t64.5 -166.5v-12q0 -84 -36 -137.5t-128 -98.5l-100 -49q-70 -35 -70 -80v-12h275q31 0 40 -9.5 t9 -41.5v-76q0 -31 -10.5 -42.5t-38.5 -11.5h-422q-37 0 -49.5 11.5t-12.5 46.5z" />
<glyph unicode="&#xb3;" horiz-adv-x="819" d="M132 920.5q-5 13.5 1 37.5l19 78q10 47 51 33q92 -35 176 -35q100 0 100 68v8q0 41 -15 57.5t-63 16.5h-77q-18 0 -27.5 7t-11.5 17.5t-2 32.5v53q0 23 2 34t11 18.5t28 7.5h57q92 0 92 69v9q0 51 -86 51q-68 0 -141 -25q-29 -8 -38 -3t-18 38l-18 72q-8 27 -3 40t32 21 q109 39 229 39q248 0 248 -203v-16q0 -125 -90 -172v-6q100 -45 100 -152v-16q0 -244 -278 -244q-139 0 -248 43q-25 8 -30 21.5z" />
<glyph unicode="&#xb4;" horiz-adv-x="757" d="M143 1182q-29 43 2 63l328 228q39 27 64 -11l71 -102q16 -25 13 -39t-29 -31l-332 -182q-45 -27 -74 14z" />
<glyph unicode="&#xb5;" horiz-adv-x="1110" d="M86 -311v1263q0 31 11.5 41.5t45.5 10.5h129q35 0 46.5 -10.5t11.5 -41.5v-592q0 -106 39 -139q41 -35 125 -35t124 31q43 35 44 143v592q0 31 11 41.5t46 10.5h129q35 0 46 -10.5t11 -41.5v-671q0 -94 60 -95q31 0 55 9q45 14 51 -33l12 -103q6 -35 -30 -51 q-57 -27 -142 -26q-160 0 -206 94h-5q-68 -94 -215 -94q-100 0 -155 43v-336q0 -31 -11.5 -41t-46.5 -10h-129q-35 0 -46 10t-11 41z" />
<glyph unicode="&#x3bc;" horiz-adv-x="1110" d="M86 -311v1263q0 31 11.5 41.5t45.5 10.5h129q35 0 46.5 -10.5t11.5 -41.5v-592q0 -106 39 -139q41 -35 125 -35t124 31q43 35 44 143v592q0 31 11 41.5t46 10.5h129q35 0 46 -10.5t11 -41.5v-671q0 -94 60 -95q31 0 55 9q45 14 51 -33l12 -103q6 -35 -30 -51 q-57 -27 -142 -26q-160 0 -206 94h-5q-68 -94 -215 -94q-100 0 -155 43v-336q0 -31 -11.5 -41t-46.5 -10h-129q-35 0 -46 10t-11 41z" />
<glyph unicode="&#xb6;" horiz-adv-x="1275" d="M92 989q0 162 121 272.5t309 110.5h635q27 0 36 -10t9 -37v-115q0 -25 -9 -34t-36 -9h-106v-1333q0 -31 -11.5 -41t-46.5 -10h-123q-35 0 -46 10t-11 41v1333h-127v-1333q0 -31 -11 -41t-46 -10h-137q-35 0 -46.5 10t-11.5 41v776q-150 18 -246 126t-96 253z" />
<glyph unicode="&#xb7;" horiz-adv-x="430" d="M74 578v32q0 129 131 129h22q129 0 129 -129v-32q0 -131 -129 -132h-22q-70 0 -100.5 32t-30.5 100z" />
<glyph unicode="&#xb8;" horiz-adv-x="757" d="M152 -420l10 66q6 33 37 22q61 -20 129 -20q86 0 86 57q0 53 -68 53q-18 0 -72 -8q-29 -6 -45 17l-16 24q-10 18 -8 37l35 158q6 20 26 20h99q25 0 20 -20l-20 -105q31 6 63 6q70 0 118 -44t48 -128q0 -203 -242 -202q-96 0 -174 24q-30 10 -26 43z" />
<glyph unicode="&#xb9;" horiz-adv-x="819" d="M119 1458q-23 35 14 62l162 102q45 29 100 29h70q43 0 56.5 -11.5t13.5 -50.5v-534h114q35 0 44 -11.5t9 -44.5v-71q0 -31 -10 -42.5t-43 -11.5h-444q-31 0 -43 12.5t-12 43.5v71q0 53 55 54h129v377h-8l-101 -62q-39 -25 -61 12z" />
<glyph unicode="&#xba;" horiz-adv-x="663" d="M57 887v49q0 162 63.5 232.5t211 70.5t211 -70.5t63.5 -232.5v-49q0 -162 -63.5 -233.5t-211 -71.5t-211 71.5t-63.5 233.5zM233 903q0 -96 21.5 -132t77.5 -36q53 0 74.5 36t21.5 132v12q0 96 -21.5 133t-74.5 37q-55 0 -77 -36.5t-22 -133.5v-12z" />
<glyph unicode="&#xbb;" horiz-adv-x="1163" d="M62.5 216.5q-3.5 21.5 31.5 55.5l225 205l-225 209q-55 49 2 102l49 43q31 25 54.5 23t58.5 -31l315 -258q39 -33 39 -80v-16q0 -47 -39 -80l-315 -260q-37 -29 -60.5 -31t-52.5 25l-49 43q-30 29 -33.5 50.5zM572 216.5q-3 21.5 32 55.5l225 205l-225 209q-55 49 2 102 l49 43q31 25 54.5 23t58.5 -31l315 -258q39 -33 39 -80v-16q0 -47 -39 -80l-315 -260q-37 -29 -60.5 -31t-52.5 25l-49 43q-31 29 -34 50.5z" />
<glyph unicode="&#xbc;" horiz-adv-x="1822" d="M72 1133q-23 35 14 61l162 102q45 29 100 29h70q43 0 56 -11t13 -50v-535h115q35 0 44 -11t9 -44v-72q0 -31 -10 -42t-43 -11h-444q-31 0 -43.5 12t-12.5 43v72q0 53 56 53h129v377h-8l-101 -62q-39 -25 -61 13zM446 45l766 1258q27 41 80 40h121q45 0 56.5 -14t-9.5 -49 l-766 -1257q-27 -41 -80 -41h-133q-74 0 -35 63zM1083 211v57q0 25 31 72l242 385q33 51 92 51h129q33 0 45 -12t12 -45v-391h60q37 0 37 -45v-68q0 -47 -37 -47h-60v-129q0 -39 -45 -39h-110q-45 0 -45 39v129h-301q-29 0 -39.5 8t-10.5 35zM1272 328h162v252h-7z" />
<glyph unicode="&#xbd;" horiz-adv-x="1822" d="M72 1133q-23 35 14 61l162 102q45 29 100 29h70q43 0 56 -11t13 -50v-535h115q35 0 44 -11t9 -44v-72q0 -31 -10 -42t-43 -11h-444q-31 0 -43.5 12t-12.5 43v72q0 53 56 53h129v377h-8l-101 -62q-39 -25 -61 13zM446 45l766 1258q27 41 80 40h121q45 0 56.5 -14t-9.5 -49 l-766 -1257q-27 -41 -80 -41h-133q-74 0 -35 63zM1210 57v80q0 199 156 275l100 49q47 23 64.5 41t17.5 47v6q0 53 -84 53q-86 0 -157 -26q-20 -8 -30.5 -1t-19.5 40l-16 71q-12 53 25 66q100 37 235 37q123 0 187.5 -58.5t64.5 -167.5v-12q0 -86 -36 -138t-128 -97 l-100 -50q-70 -35 -70 -79v-13h275q31 0 40 -10t9 -41v-76q0 -31 -10.5 -42t-38.5 -11h-422q-37 0 -49.5 11t-12.5 46z" />
<glyph unicode="&#xbe;" horiz-adv-x="1822" d="M114 599q-5 13 1 38l18 78q10 47 51 33q92 -35 176 -35q100 0 101 67v8q0 41 -15.5 57.5t-62.5 16.5h-78q-18 0 -27.5 7.5t-11.5 17.5t-2 33v53q0 23 2 34t11.5 18t27.5 7h57q92 0 93 70v8q0 51 -86 51q-68 0 -142 -24q-29 -8 -38 -3t-17 37l-18 72q-8 27 -3 40t31 22 q109 39 230 38q248 0 247 -202v-17q0 -125 -90 -172v-6q100 -45 101 -151v-17q0 -244 -279 -243q-139 0 -248 43q-24 8 -29 21zM446 45l766 1258q27 41 80 40h121q45 0 56.5 -14t-9.5 -49l-766 -1257q-27 -41 -80 -41h-133q-74 0 -35 63zM1083 211v57q0 25 31 72l242 385 q33 51 92 51h129q33 0 45 -12t12 -45v-391h60q37 0 37 -45v-68q0 -47 -37 -47h-60v-129q0 -39 -45 -39h-110q-45 0 -45 39v129h-301q-29 0 -39.5 8t-10.5 35zM1272 328h162v252h-7z" />
<glyph unicode="&#xbf;" horiz-adv-x="911" d="M66 -8v26q0 201 206 340l64 43q94 61 119 88q18 20 18 121q0 41 51 41h113q45 0 45 -41q0 -147 -18 -188q-31 -66 -146 -141l-65 -43q-74 -47 -105 -93.5t-31 -113.5v-23q0 -76 43 -112q43 -35 140 -35q117 0 256 55q49 18 65 -29l27 -88q14 -49 -33 -67 q-168 -72 -348 -72q-190 0 -295.5 83t-105.5 249zM436 874v11q0 66 37 101.5t100 35.5h9q139 0 139 -137v-11q0 -68 -39 -101.5t-100 -33.5h-9q-137 0 -137 135z" />
<glyph unicode="&#xc0;" horiz-adv-x="1165" d="M12 22.5q2 10.5 2 30.5q156 567 383 1198q16 47 43 60.5t92 13.5h101q66 0 94.5 -14.5t44.5 -59.5q197 -541 379 -1198q10 -37 -6.5 -45t-67.5 -8h-108q-41 0 -60.5 10t-27.5 43l-68 252h-459l-67 -252q-8 -33 -27.5 -43t-60.5 -10h-109q-27 0 -38 1t-26.5 6t-13.5 15.5z M296 1606.5q-5 13.5 9 40.5l60 108q23 39 63 17l350 -191q31 -18 8 -61l-36 -64q-23 -47 -72 -22l-348 145q-29 14 -34 27.5zM414 520h340q-94 332 -158 543h-25q-63 -211 -157 -543z" />
<glyph unicode="&#xc1;" horiz-adv-x="1165" d="M12 22.5q2 10.5 2 30.5q156 567 383 1198q16 47 43 60.5t92 13.5h101q66 0 94.5 -14.5t44.5 -59.5q197 -541 379 -1198q10 -37 -6.5 -45t-67.5 -8h-108q-41 0 -60.5 10t-27.5 43l-68 252h-459l-67 -252q-8 -33 -27.5 -43t-60.5 -10h-109q-27 0 -38 1t-26.5 6t-13.5 15.5z M387 1520q-25 41 8 61l350 191q41 23 64 -17l59 -108q14 -27 9 -41.5t-33 -26.5l-348 -145q-47 -18 -72 22zM414 520h340q-94 332 -158 543h-25q-63 -211 -157 -543z" />
<glyph unicode="&#xc2;" horiz-adv-x="1165" d="M12 22.5q2 10.5 2 30.5q156 567 383 1198q16 47 43 60.5t92 13.5h101q66 0 94.5 -14.5t44.5 -59.5q197 -541 379 -1198q10 -37 -6.5 -45t-67.5 -8h-108q-41 0 -60.5 10t-27.5 43l-68 252h-459l-67 -252q-8 -33 -27.5 -43t-60.5 -10h-109q-27 0 -38 1t-26.5 6t-13.5 15.5z M285 1559l186 223q18 23 51 22h117q31 0 51 -22l189 -223q29 -31 -5 -60l-57 -43q-35 -29 -69 4l-166 160h-7l-159 -160q-33 -35 -70 -4l-57 43q-33 29 -4 60zM414 520h340q-94 332 -158 543h-25q-63 -211 -157 -543z" />
<glyph unicode="&#xc3;" horiz-adv-x="1165" d="M12 22.5q2 10.5 2 30.5q156 567 383 1198q16 47 43 60.5t92 13.5h101q66 0 94.5 -14.5t44.5 -59.5q197 -541 379 -1198q10 -37 -6.5 -45t-67.5 -8h-108q-41 0 -60.5 10t-27.5 43l-68 252h-459l-67 -252q-8 -33 -27.5 -43t-60.5 -10h-109q-27 0 -38 1t-26.5 6t-13.5 15.5z M248 1554q78 172 209 172q63 0 125 -38l55 -35q47 -29 72 -29q43 0 88 72q20 33 57 6l45 -31q33 -23 14 -59q-90 -162 -217 -162q-61 0 -123 39l-55 37q-37 25 -61 24q-43 0 -88 -73q-20 -35 -58 -13l-51 31q-28 18 -12 59zM414 520h340q-94 332 -158 543h-25 q-63 -211 -157 -543z" />
<glyph unicode="&#xc4;" horiz-adv-x="1165" d="M12 22.5q2 10.5 2 30.5q156 567 383 1198q16 47 43 60.5t92 13.5h101q66 0 94.5 -14.5t44.5 -59.5q197 -541 379 -1198q10 -37 -6.5 -45t-67.5 -8h-108q-41 0 -60.5 10t-27.5 43l-68 252h-459l-67 -252q-8 -33 -27.5 -43t-60.5 -10h-109q-27 0 -38 1t-26.5 6t-13.5 15.5z M295 1585v49q0 45 29.5 73t78.5 28h21q51 0 82 -28t31 -73v-49q0 -100 -113 -100h-21q-108 0 -108 100zM414 520h340q-94 332 -158 543h-25q-63 -211 -157 -543zM631 1585v49q0 45 29.5 73t78.5 28h19q51 0 80.5 -27t29.5 -74v-49q0 -100 -110 -100h-19q-108 0 -108 100z " />
<glyph unicode="&#xc5;" horiz-adv-x="1165" d="M12 22.5q2 10.5 2 30.5q156 567 383 1198q16 47 43 60.5t92 13.5h101q66 0 94.5 -14.5t44.5 -59.5q197 -541 379 -1198q10 -37 -6.5 -45t-67.5 -8h-108q-41 0 -60.5 10t-27.5 43l-68 252h-459l-67 -252q-8 -33 -27.5 -43t-60.5 -10h-109q-27 0 -38 1t-26.5 6t-13.5 15.5z M383 1585q0 82 58.5 140.5t140.5 58.5q84 0 141 -57.5t57 -141.5t-57 -141.5t-141 -57.5t-141.5 57.5t-57.5 141.5zM414 520h340q-94 332 -158 543h-25q-63 -211 -157 -543zM516 1585q0 -29 18.5 -48t47 -19t48 19t19.5 48t-19.5 47.5t-48 18.5t-47 -18.5t-18.5 -47.5z" />
<glyph unicode="&#xc6;" horiz-adv-x="1714" d="M14.5 15.5q-12.5 11.5 5.5 37.5q303 623 619 1198q25 45 55.5 59.5t96.5 14.5h790q35 0 43 -9t8 -40v-113q0 -29 -9 -39t-42 -10h-510v-326h442q35 0 43.5 -9t8.5 -40v-112q0 -29 -9.5 -39t-42.5 -10h-442v-310q0 -33 15.5 -45t50.5 -12h442q35 0 44 -9t9 -40v-113 q0 -29 -9 -39t-44 -10h-469q-160 0 -219 49q-72 59 -72 189v67h-405l-121 -252q-16 -33 -36.5 -43t-61.5 -10h-109q-35 0 -47 2t-24.5 13.5zM518 520h301v596h-18q-49 -96 -146.5 -307t-136.5 -289z" />
<glyph unicode="&#xc7;" horiz-adv-x="1091" d="M98 621v81q0 219 39 342t139 203q123 96 359 96q211 0 366 -92q31 -16 15 -59l-49 -123q-16 -41 -66 -12q-135 74 -266 73.5t-195 -63.5q-45 -45 -61.5 -134t-16.5 -251v-37q0 -291 70 -375q63 -76 230 -75q135 0 262 55q49 20 61 -33l25 -98q6 -31 -1.5 -46.5 t-41.5 -27.5q-156 -61 -318 -63l-18 -101q31 6 63 6q70 0 118 -44t48 -128q0 -203 -242 -202q-96 0 -174 24q-31 10 -26 43l10 66q6 33 37 22q61 -20 129 -20q86 0 86 57q0 53 -68 53q-18 0 -71 -8q-29 -6 -45 17l-17 24q-10 18 -8 37l35 158v2q-178 18 -273 112 q-74 74 -104.5 196t-30.5 325z" />
<glyph unicode="&#xc8;" horiz-adv-x="1040" d="M127 588v149q0 295 20 451q10 82 39 109.5t103 27.5h618q35 0 43 -9t8 -40v-113q0 -29 -9 -39t-42 -10h-475q-23 0 -32 -7t-11 -34q-8 -72 -8 -285h459q35 0 43 -9t8 -40v-112q0 -29 -9.5 -39t-41.5 -10h-459q0 -236 10 -326q2 -27 11.5 -34t31.5 -7h471q35 0 44 -9 t9 -40v-113q0 -29 -9 -39t-44 -10h-616q-74 0 -102.5 27.5t-39.5 109.5q-20 156 -20 451zM335 1606.5q-5 13.5 9 40.5l59 108q23 39 64 17l350 -191q31 -18 8 -61l-37 -64q-23 -47 -71 -22l-348 145q-29 14 -34 27.5z" />
<glyph unicode="&#xc9;" horiz-adv-x="1040" d="M127 588v149q0 295 20 451q10 82 39 109.5t103 27.5h618q35 0 43 -9t8 -40v-113q0 -29 -9 -39t-42 -10h-475q-23 0 -32 -7t-11 -34q-8 -72 -8 -285h459q35 0 43 -9t8 -40v-112q0 -29 -9.5 -39t-41.5 -10h-459q0 -236 10 -326q2 -27 11.5 -34t31.5 -7h471q35 0 44 -9 t9 -40v-113q0 -29 -9 -39t-44 -10h-616q-74 0 -102.5 27.5t-39.5 109.5q-20 156 -20 451zM403 1520q-25 41 9 61l350 191q41 23 63 -17l60 -108q14 -27 9 -41.5t-34 -26.5l-348 -145q-47 -18 -72 22z" />
<glyph unicode="&#xca;" horiz-adv-x="1040" d="M127 588v149q0 295 20 451q10 82 39 109.5t103 27.5h618q35 0 43 -9t8 -40v-113q0 -29 -9 -39t-42 -10h-475q-23 0 -32 -7t-11 -34q-8 -72 -8 -285h459q35 0 43 -9t8 -40v-112q0 -29 -9.5 -39t-41.5 -10h-459q0 -236 10 -326q2 -27 11.5 -34t31.5 -7h471q35 0 44 -9 t9 -40v-113q0 -29 -9 -39t-44 -10h-616q-74 0 -102.5 27.5t-39.5 109.5q-20 156 -20 451zM309 1559l187 223q18 23 51 22h117q31 0 51 -22l188 -223q29 -31 -4 -60l-57 -43q-35 -29 -70 4l-166 160h-6l-160 -160q-33 -35 -69 -4l-58 43q-33 29 -4 60z" />
<glyph unicode="&#xcb;" horiz-adv-x="1040" d="M127 588v149q0 295 20 451q10 82 39 109.5t103 27.5h618q35 0 43 -9t8 -40v-113q0 -29 -9 -39t-42 -10h-475q-23 0 -32 -7t-11 -34q-8 -72 -8 -285h459q35 0 43 -9t8 -40v-112q0 -29 -9.5 -39t-41.5 -10h-459q0 -236 10 -326q2 -27 11.5 -34t31.5 -7h471q35 0 44 -9 t9 -40v-113q0 -29 -9 -39t-44 -10h-616q-74 0 -102.5 27.5t-39.5 109.5q-20 156 -20 451zM309 1585v49q0 45 30 73t79 28h20q51 0 82 -28t31 -73v-49q0 -100 -113 -100h-20q-109 0 -109 100zM645 1585v49q0 45 30 73t79 28h18q51 0 81 -27t30 -74v-49q0 -100 -111 -100h-18 q-109 0 -109 100z" />
<glyph unicode="&#xcc;" horiz-adv-x="550" d="M-44 1606.5q-5 13.5 9 40.5l60 108q23 39 63 17l350 -191q31 -18 8 -61l-36 -64q-23 -47 -72 -22l-348 145q-29 14 -34 27.5zM147 51v1223q0 33 10.5 42t45.5 9h147q35 0 45.5 -9t10.5 -42v-1223q0 -33 -10.5 -42t-45.5 -9h-147q-35 0 -45.5 9t-10.5 42z" />
<glyph unicode="&#xcd;" horiz-adv-x="550" d="M100 1520q-25 41 9 61l350 191q41 23 63 -17l60 -108q14 -27 9 -41.5t-34 -26.5l-348 -145q-47 -18 -72 22zM147 51v1223q0 33 10.5 42t45.5 9h147q35 0 45.5 -9t10.5 -42v-1223q0 -33 -10.5 -42t-45.5 -9h-147q-35 0 -45.5 9t-10.5 42z" />
<glyph unicode="&#xce;" horiz-adv-x="550" d="M-25 1559l187 223q18 23 51 22h117q31 0 51 -22l188 -223q29 -31 -4 -60l-57 -43q-35 -29 -70 4l-166 160h-6l-160 -160q-33 -35 -69 -4l-57 43q-34 29 -5 60zM147 51v1223q0 33 10.5 42t45.5 9h147q35 0 45.5 -9t10.5 -42v-1223q0 -33 -10.5 -42t-45.5 -9h-147 q-35 0 -45.5 9t-10.5 42z" />
<glyph unicode="&#xcf;" horiz-adv-x="550" d="M-10 1585v49q0 45 29.5 73t78.5 28h21q51 0 81.5 -28t30.5 -73v-49q0 -100 -112 -100h-21q-108 0 -108 100zM147 51v1223q0 33 10.5 42t45.5 9h147q35 0 45.5 -9t10.5 -42v-1223q0 -33 -10.5 -42t-45.5 -9h-147q-35 0 -45.5 9t-10.5 42zM326 1585v49q0 45 29.5 73 t78.5 28h19q51 0 80.5 -27t29.5 -74v-49q0 -100 -110 -100h-19q-108 0 -108 100z" />
<glyph unicode="&#xd0;" horiz-adv-x="1263" d="M-6 643v70q0 51 10 63t49 12h86v449q0 45 15.5 63.5t56.5 22.5q123 12 287 12q342 0 499 -137q168 -147 168 -477v-117q0 -330 -180 -471q-94 -74 -215 -103.5t-326 -29.5q-203 0 -233 2q-41 4 -56.5 21.5t-15.5 62.5v481h-86q-39 0 -49 12.5t-10 63.5zM397 254 q0 -47 49 -47h64q215 0 303 94t88 322v90q0 236 -83 324.5t-314 88.5q-51 0 -72 -2q-35 -2 -35 -37v-299h146q39 0 49 -12t10 -63v-74q0 -47 -10 -59.5t-49 -12.5h-146v-313z" />
<glyph unicode="&#xd1;" horiz-adv-x="1314" d="M139 51v1223q0 33 10.5 42t45.5 9h122q70 0 101 -49l510 -844h8v842q0 33 10 42t45 9h129q35 0 45.5 -9t10.5 -42v-1223q0 -33 -10.5 -42t-45.5 -9h-123q-70 0 -100 49l-510 825h-8v-823q0 -33 -10.5 -42t-44.5 -9h-129q-35 0 -45.5 9t-10.5 42zM334 1554q78 172 209 172 q63 0 125 -38l55 -35q47 -29 72 -29q43 0 88 72q20 33 57 6l45 -31q33 -23 14 -59q-90 -162 -217 -162q-61 0 -123 39l-55 37q-37 25 -61 24q-43 0 -88 -73q-20 -35 -58 -13l-51 31q-28 18 -12 59z" />
<glyph unicode="&#xd2;" horiz-adv-x="1265" d="M98 621v84q0 346 148 505q127 133 387 133q254 0 383 -133q152 -154 151 -505v-84q0 -352 -151 -506q-129 -133 -383 -133q-260 0 -387 133q-148 160 -148 506zM355 1606.5q-5 13.5 10 40.5l59 108q23 39 63 17l351 -191q31 -18 8 -61l-37 -64q-23 -47 -72 -22l-348 145 q-29 14 -34 27.5zM362 641q0 -264 68 -362q57 -84 202.5 -84t203.5 84q68 102 67 362v43q0 262 -67 363q-57 84 -203 83.5t-203 -83.5q-68 -98 -68 -363v-43z" />
<glyph unicode="&#xd3;" horiz-adv-x="1265" d="M98 621v84q0 346 148 505q127 133 387 133q254 0 383 -133q152 -154 151 -505v-84q0 -352 -151 -506q-129 -133 -383 -133q-260 0 -387 133q-148 160 -148 506zM362 641q0 -264 68 -362q57 -84 202.5 -84t203.5 84q68 102 67 362v43q0 262 -67 363q-57 84 -203 83.5 t-203 -83.5q-68 -98 -68 -363v-43zM457 1520q-25 41 8 61l350 191q41 23 64 -17l59 -108q14 -27 9 -41.5t-34 -26.5l-348 -145q-47 -18 -71 22z" />
<glyph unicode="&#xd4;" horiz-adv-x="1265" d="M98 621v84q0 346 148 505q127 133 387 133q254 0 383 -133q152 -154 151 -505v-84q0 -352 -151 -506q-129 -133 -383 -133q-260 0 -387 133q-148 160 -148 506zM344 1559l186 223q18 23 52 22h116q31 0 52 -22l188 -223q29 -31 -4 -60l-57 -43q-35 -29 -70 4l-166 160h-6 l-160 -160q-33 -35 -69 -4l-58 43q-33 29 -4 60zM362 641q0 -264 68 -362q57 -84 202.5 -84t203.5 84q68 102 67 362v43q0 262 -67 363q-57 84 -203 83.5t-203 -83.5q-68 -98 -68 -363v-43z" />
<glyph unicode="&#xd5;" horiz-adv-x="1265" d="M98 621v84q0 346 148 505q127 133 387 133q254 0 383 -133q152 -154 151 -505v-84q0 -352 -151 -506q-129 -133 -383 -133q-260 0 -387 133q-148 160 -148 506zM305 1554q78 172 209 172q63 0 125 -38l55 -35q47 -29 72 -29q43 0 88 72q20 33 57 6l45 -31q33 -23 15 -59 q-90 -162 -217 -162q-61 0 -123 39l-56 37q-37 25 -61 24q-43 0 -88 -73q-20 -35 -57 -13l-52 31q-28 18 -12 59zM362 641q0 -264 68 -362q57 -84 202.5 -84t203.5 84q68 102 67 362v43q0 262 -67 363q-57 84 -203 83.5t-203 -83.5q-68 -98 -68 -363v-43z" />
<glyph unicode="&#xd6;" horiz-adv-x="1265" d="M98 621v84q0 346 148 505q127 133 387 133q254 0 383 -133q152 -154 151 -505v-84q0 -352 -151 -506q-129 -133 -383 -133q-260 0 -387 133q-148 160 -148 506zM350 1585v49q0 45 30 73t79 28h20q51 0 82 -28t31 -73v-49q0 -100 -113 -100h-20q-109 0 -109 100zM362 641 q0 -264 68 -362q57 -84 202.5 -84t203.5 84q68 102 67 362v43q0 262 -67 363q-57 84 -203 83.5t-203 -83.5q-68 -98 -68 -363v-43zM686 1585v49q0 45 29.5 73t79.5 28h18q51 0 81 -27t30 -74v-49q0 -100 -111 -100h-18q-109 0 -109 100z" />
<glyph unicode="&#xd7;" d="M144 799.5q3 21.5 38 54.5l49 43q33 31 52.5 36t58.5 -24l219 -213l207 203q39 31 58.5 29t47.5 -31l54 -51q25 -25 26.5 -45.5t-4.5 -30.5t-22 -27l-207 -206l221 -222q45 -47 -16 -108l-52 -49q-55 -57 -104 -11l-221 218l-207 -203q-39 -35 -56.5 -33t-49.5 35l-52 47 q-31 31 -32.5 48t30.5 58l207 207l-217 219q-31 35 -28 56.5z" />
<glyph unicode="&#xd8;" horiz-adv-x="1265" d="M98 621v84q0 346 148 505q127 133 387 133q152 0 256 -47l78 140q25 47 80 16l53 -29q31 -16 35 -31.5t-13 -41.5l-88 -160q133 -156 133 -485v-84q0 -352 -151 -506q-129 -133 -383 -133q-150 0 -246 36l-68 -120q-25 -47 -79 -17l-54 29q-31 16 -35 31.5t13 42.5 l76 137q-142 158 -142 500zM362 641q0 -180 21 -258l397 715q-57 33 -147 32q-145 0 -203 -83q-68 -98 -68 -363v-43zM498 219q51 -25 135 -24q145 0 203 84q68 102 67 362v43q0 143 -18 236z" />
<glyph unicode="&#xd9;" horiz-adv-x="1257" d="M123 449v825q0 33 10 42t45 9h148q35 0 45 -9t10 -42v-813q0 -143 55 -199q61 -68 193 -67q129 0 194 67q53 59 54 199v813q0 33 10 42t45 9h147q35 0 45.5 -9t10.5 -42v-825q0 -238 -123 -353q-119 -115 -383 -114q-262 0 -381 114q-125 117 -125 353zM339 1606.5 q-5 13.5 9 40.5l60 108q23 39 63 17l350 -191q31 -18 8 -61l-36 -64q-23 -47 -72 -22l-348 145q-29 14 -34 27.5z" />
<glyph unicode="&#xda;" horiz-adv-x="1257" d="M123 449v825q0 33 10 42t45 9h148q35 0 45 -9t10 -42v-813q0 -143 55 -199q61 -68 193 -67q129 0 194 67q53 59 54 199v813q0 33 10 42t45 9h147q35 0 45.5 -9t10.5 -42v-825q0 -238 -123 -353q-119 -115 -383 -114q-262 0 -381 114q-125 117 -125 353zM451 1520 q-25 41 8 61l350 191q41 23 63 -17l60 -108q14 -27 9 -41.5t-34 -26.5l-348 -145q-47 -18 -72 22z" />
<glyph unicode="&#xdb;" horiz-adv-x="1257" d="M123 449v825q0 33 10 42t45 9h148q35 0 45 -9t10 -42v-813q0 -143 55 -199q61 -68 193 -67q129 0 194 67q53 59 54 199v813q0 33 10 42t45 9h147q35 0 45.5 -9t10.5 -42v-825q0 -238 -123 -353q-119 -115 -383 -114q-262 0 -381 114q-125 117 -125 353zM336 1559l186 223 q18 23 51 22h117q31 0 51 -22l189 -223q29 -31 -4 -60l-58 -43q-35 -29 -69 4l-166 160h-6l-160 -160q-33 -35 -70 -4l-57 43q-33 29 -4 60z" />
<glyph unicode="&#xdc;" horiz-adv-x="1257" d="M123 449v825q0 33 10 42t45 9h148q35 0 45 -9t10 -42v-813q0 -143 55 -199q61 -68 193 -67q129 0 194 67q53 59 54 199v813q0 33 10 42t45 9h147q35 0 45.5 -9t10.5 -42v-825q0 -238 -123 -353q-119 -115 -383 -114q-262 0 -381 114q-125 117 -125 353zM346 1585v49 q0 45 30 73t79 28h20q51 0 82 -28t31 -73v-49q0 -100 -113 -100h-20q-109 0 -109 100zM682 1585v49q0 45 29.5 73t79.5 28h18q51 0 81 -27t30 -74v-49q0 -100 -111 -100h-18q-109 0 -109 100z" />
<glyph unicode="&#xdd;" horiz-adv-x="1021" d="M29 1282q-8 25 4 34t47 9h141q37 0 49.5 -6t18.5 -37q76 -328 215 -633h14q131 289 215 633q8 31 20.5 37t47.5 6h141q35 0 47 -9t4 -34q-150 -506 -354 -854v-377q0 -33 -10.5 -42t-44.5 -9h-148q-35 0 -45 9t-10 42v377q-205 362 -352 854zM319 1520q-25 41 9 61 l350 191q41 23 63 -17l60 -108q14 -27 9 -41.5t-34 -26.5l-348 -145q-47 -18 -72 22z" />
<glyph unicode="&#xde;" horiz-adv-x="1126" d="M139 55v1215q0 35 11.5 45t48.5 10h139q37 0 48 -10t11 -45v-156h148q252 0 377 -98q121 -94 120 -318v-36q0 -223 -133 -328q-131 -102 -393 -103h-119v-176q0 -35 -11 -45t-48 -10h-139q-37 0 -48.5 10t-11.5 45zM397 446h127q139 0 196.5 50.5t57.5 175.5v26 q0 113 -53 158q-57 45 -195 45h-133v-455z" />
<glyph unicode="&#xdf;" horiz-adv-x="1128" d="M123 -121v1116q0 229 119 322q119 88 331 88q186 0 299 -84q55 -41 88 -110.5t33 -149.5v-21q0 -238 -155 -297v-6q104 -23 159 -94q59 -78 60 -219v-45q0 -207 -103 -305q-98 -92 -297 -92q-92 0 -186 14q-35 6 -33 45l8 115q2 37 48 28q49 -8 120 -8q195 0 195 221v31 q0 104 -47 145q-55 49 -184 50h-60q-37 0 -37 34v129q0 37 37 37h27q94 0 137 27q63 39 63 164v20q0 78 -46 125t-134 47q-102 0 -147 -45q-51 -51 -51 -184v-1098q0 -31 -11.5 -41t-46.5 -10h-129q-35 0 -46 10t-11 41z" />
<glyph unicode="&#xe0;" horiz-adv-x="1003" d="M74 276v48q0 166 86 237q90 76 299 76h73q45 0 115 -4v55q0 76 -35 105q-37 29 -141 28q-123 0 -252 -39q-41 -12 -51 33l-18 96q-12 49 30 62q152 49 309 49q199 0 295 -66q106 -74 107 -270v-647q0 -39 -43 -39h-94q-41 0 -49 37l-13 49h-4q-59 -104 -225 -104h-76 q-147 0 -225 65q-88 75 -88 229zM257 1321q-3 14 13 39l72 102q25 37 64 11l327 -228q31 -20 2 -63l-43 -60q-29 -41 -74 -14l-331 182q-27 17 -30 31zM319 293q0 -63 31 -92q29 -25 90 -25h74q70 0 101.5 33t31.5 104v125q-70 4 -119 4h-71q-80 0 -107 -24 q-31 -25 -31 -101v-24z" />
<glyph unicode="&#xe1;" horiz-adv-x="1003" d="M74 276v48q0 166 86 237q90 76 299 76h73q45 0 115 -4v55q0 76 -35 105q-37 29 -141 28q-123 0 -252 -39q-41 -12 -51 33l-18 96q-12 49 30 62q152 49 309 49q199 0 295 -66q106 -74 107 -270v-647q0 -39 -43 -39h-94q-41 0 -49 37l-13 49h-4q-59 -104 -225 -104h-76 q-147 0 -225 65q-88 75 -88 229zM319 293q0 -63 31 -92q29 -25 90 -25h74q70 0 101.5 33t31.5 104v125q-70 4 -119 4h-71q-80 0 -107 -24q-31 -25 -31 -101v-24zM338 1182q-29 43 2 63l328 228q39 27 63 -11l72 -102q16 -25 13 -39t-30 -31l-331 -182q-45 -27 -74 14z" />
<glyph unicode="&#xe2;" horiz-adv-x="1003" d="M74 276v48q0 166 86 237q90 76 299 76h73q45 0 115 -4v55q0 76 -35 105q-37 29 -141 28q-123 0 -252 -39q-41 -12 -51 33l-18 96q-12 49 30 62q152 49 309 49q199 0 295 -66q106 -74 107 -270v-647q0 -39 -43 -39h-94q-41 0 -49 37l-13 49h-4q-59 -104 -225 -104h-76 q-147 0 -225 65q-88 75 -88 229zM225 1227l187 223q18 23 51 23h117q31 0 51 -23l188 -223q29 -31 -4 -60l-57 -43q-35 -29 -70 4l-166 160h-6l-160 -160q-33 -35 -69 -4l-58 43q-33 29 -4 60zM319 293q0 -63 31 -92q29 -25 90 -25h74q70 0 101.5 33t31.5 104v125 q-70 4 -119 4h-71q-80 0 -107 -24q-31 -25 -31 -101v-24z" />
<glyph unicode="&#xe3;" horiz-adv-x="1003" d="M74 276v48q0 166 86 237q90 76 299 76h73q45 0 115 -4v55q0 76 -35 105q-37 29 -141 28q-123 0 -252 -39q-41 -12 -51 33l-18 96q-12 49 30 62q152 49 309 49q199 0 295 -66q106 -74 107 -270v-647q0 -39 -43 -39h-94q-41 0 -49 37l-13 49h-4q-59 -104 -225 -104h-76 q-147 0 -225 65q-88 75 -88 229zM193 1243q78 172 208 172q63 0 125 -39l56 -35q47 -29 71 -28q43 0 88 71q20 33 58 7l45 -31q33 -23 14 -60q-90 -162 -217 -161q-61 0 -123 39l-55 36q-37 25 -62 25q-43 0 -88 -74q-20 -35 -57 -12l-51 31q-28 18 -12 59zM319 293 q0 -63 31 -92q29 -25 90 -25h74q70 0 101.5 33t31.5 104v125q-70 4 -119 4h-71q-80 0 -107 -24q-31 -25 -31 -101v-24z" />
<glyph unicode="&#xe4;" horiz-adv-x="1003" d="M74 276v48q0 166 86 237q90 76 299 76h73q45 0 115 -4v55q0 76 -35 105q-37 29 -141 28q-123 0 -252 -39q-41 -12 -51 33l-18 96q-12 49 30 62q152 49 309 49q199 0 295 -66q106 -74 107 -270v-647q0 -39 -43 -39h-94q-41 0 -49 37l-13 49h-4q-59 -104 -225 -104h-76 q-147 0 -225 65q-88 75 -88 229zM236 1270v49q0 45 29.5 72.5t78.5 27.5h21q51 0 81.5 -27.5t30.5 -72.5v-49q0 -100 -112 -101h-21q-108 1 -108 101zM319 293q0 -63 31 -92q29 -25 90 -25h74q70 0 101.5 33t31.5 104v125q-70 4 -119 4h-71q-80 0 -107 -24q-31 -25 -31 -101 v-24zM571 1270v49q0 45 30 72.5t79 27.5h18q51 0 81 -26.5t30 -73.5v-49q0 -100 -111 -101h-18q-109 1 -109 101z" />
<glyph unicode="&#xe5;" horiz-adv-x="1003" d="M74 276v48q0 166 86 237q90 76 299 76h73q45 0 115 -4v55q0 76 -35 105q-37 29 -141 28q-123 0 -252 -39q-41 -12 -51 33l-18 96q-12 49 30 62q152 49 309 49q199 0 295 -66q106 -74 107 -270v-647q0 -39 -43 -39h-94q-41 0 -49 37l-13 49h-4q-59 -104 -225 -104h-76 q-147 0 -225 65q-88 75 -88 229zM315 1294q0 82 57.5 140.5t141.5 58.5t141.5 -57.5t57.5 -141.5t-57.5 -141t-141.5 -57t-141.5 57t-57.5 141zM319 293q0 -63 31 -92q29 -25 90 -25h74q70 0 101.5 33t31.5 104v125q-70 4 -119 4h-71q-80 0 -107 -24q-31 -25 -31 -101v-24z M449 1294.5q0 -28.5 18 -48t47 -19.5t48.5 19.5t19.5 48t-19.5 47t-48.5 18.5q-27 0 -46 -18.5t-19 -47z" />
<glyph unicode="&#xe6;" horiz-adv-x="1542" d="M74 276v48q0 166 86 237q90 76 299 76h73q45 0 115 -4v55q0 76 -35 105q-37 29 -141 28q-123 0 -252 -39q-41 -12 -51 33l-18 96q-12 49 30 62q152 49 301 49q236 0 310 -107q90 106 278 107q186 0 289 -92q104 -94 104 -346v-140q0 -33 -12 -46t-43 -13h-512 q2 -121 51 -164q45 -41 180 -41q121 0 222 43q43 18 57 -33l27 -98q6 -23 -1.5 -35t-35.5 -22q-139 -53 -297 -53q-236 0 -326 137q-82 -137 -309 -137h-76q-147 0 -225 65q-88 75 -88 229zM319 293q0 -63 31 -92q29 -25 90 -25h74q70 0 101.5 33t31.5 104v125q-70 4 -119 4 h-71q-80 0 -107 -24q-31 -25 -31 -101v-24zM891 578h301q27 0 27 28q0 137 -39 182q-37 39 -119 39q-78 0 -117 -41q-53 -54 -53 -208z" />
<glyph unicode="&#xe7;" horiz-adv-x="911" d="M82 477v62q0 283 123 389q111 94 307 94q176 0 315 -84q43 -27 21 -72l-51 -102q-18 -39 -60 -14q-106 68 -215 67q-88 0 -137 -43q-27 -25 -40 -65.5t-14 -73.5t-1 -113v-33q0 -195 47 -251q51 -57 158 -58q111 0 206 43q51 25 64 -22l26 -95q8 -27 0 -41t-43 -30 q-88 -45 -251 -51l-19 -103q31 6 64 6q70 0 118 -44t48 -128q0 -203 -242 -202q-96 0 -174 24q-31 10 -27 43l10 66q6 33 37 22q61 -20 129 -20q86 0 86 57q0 53 -67 53q-18 0 -72 -8q-29 -6 -45 17l-16 24q-10 18 -9 37l35 158v4q-125 18 -196 84q-68 61 -91.5 157 t-23.5 246z" />
<glyph unicode="&#xe8;" horiz-adv-x="972" d="M78 475v55q0 250 96 371t326 121q186 0 288 -92q104 -94 105 -346v-140q0 -33 -12.5 -46t-42.5 -13h-512q2 -121 51 -164q45 -41 180 -41q121 0 221 43q43 18 58 -33l26 -98q6 -23 -1 -35t-36 -22q-139 -53 -297 -53q-242 0 -344 104q-106 108 -106 389zM236.5 1321 q-3.5 14 13.5 39l72 102q25 37 63 11l328 -228q31 -20 2 -63l-43 -60q-29 -41 -74 -14l-332 182q-26 17 -29.5 31zM322 578h301q27 0 26 28q0 137 -39 182q-37 39 -118 39q-78 0 -117 -41q-53 -54 -53 -208z" />
<glyph unicode="&#xe9;" horiz-adv-x="972" d="M78 475v55q0 250 96 371t326 121q186 0 288 -92q104 -94 105 -346v-140q0 -33 -12.5 -46t-42.5 -13h-512q2 -121 51 -164q45 -41 180 -41q121 0 221 43q43 18 58 -33l26 -98q6 -23 -1 -35t-36 -22q-139 -53 -297 -53q-242 0 -344 104q-106 108 -106 389zM322 578h301 q27 0 26 28q0 137 -39 182q-37 39 -118 39q-78 0 -117 -41q-53 -54 -53 -208zM334 1182q-29 43 2 63l328 228q39 27 63 -11l72 -102q16 -25 13 -39t-30 -31l-331 -182q-45 -27 -74 14z" />
<glyph unicode="&#xea;" horiz-adv-x="972" d="M78 475v55q0 250 96 371t326 121q186 0 288 -92q104 -94 105 -346v-140q0 -33 -12.5 -46t-42.5 -13h-512q2 -121 51 -164q45 -41 180 -41q121 0 221 43q43 18 58 -33l26 -98q6 -23 -1 -35t-36 -22q-139 -53 -297 -53q-242 0 -344 104q-106 108 -106 389zM211 1227 l186 223q18 23 52 23h116q31 0 51 -23l189 -223q29 -31 -4 -60l-58 -43q-35 -29 -69 4l-166 160h-6l-160 -160q-33 -35 -70 -4l-57 43q-33 29 -4 60zM322 578h301q27 0 26 28q0 137 -39 182q-37 39 -118 39q-78 0 -117 -41q-53 -54 -53 -208z" />
<glyph unicode="&#xeb;" horiz-adv-x="972" d="M78 475v55q0 250 96 371t326 121q186 0 288 -92q104 -94 105 -346v-140q0 -33 -12.5 -46t-42.5 -13h-512q2 -121 51 -164q45 -41 180 -41q121 0 221 43q43 18 58 -33l26 -98q6 -23 -1 -35t-36 -22q-139 -53 -297 -53q-242 0 -344 104q-106 108 -106 389zM217 1270v49 q0 45 29.5 72.5t79.5 27.5h20q51 0 82 -27.5t31 -72.5v-49q0 -100 -113 -101h-20q-109 1 -109 101zM322 578h301q27 0 26 28q0 137 -39 182q-37 39 -118 39q-78 0 -117 -41q-53 -54 -53 -208zM553 1270v49q0 45 29.5 72.5t79.5 27.5h18q51 0 81 -26.5t30 -73.5v-49 q0 -100 -111 -101h-18q-109 1 -109 101z" />
<glyph unicode="&#xec;" horiz-adv-x="501" d="M-73 1317q-3 14 14 39l71 102q25 37 64 10l327 -227q31 -20 3 -63l-44 -60q-29 -41 -73 -14l-332 182q-27 17 -30 31zM129 51v901q0 31 11.5 41.5t45.5 10.5h129q35 0 46.5 -10.5t11.5 -41.5v-901q0 -31 -11.5 -41t-46.5 -10h-129q-35 0 -46 10t-11 41z" />
<glyph unicode="&#xed;" horiz-adv-x="501" d="M117 1182q-29 43 2 63l327 228q39 27 64 -11l72 -102q16 -25 13 -39t-30 -31l-332 -182q-45 -27 -73 14zM129 51v901q0 31 11.5 41.5t45.5 10.5h129q35 0 46.5 -10.5t11.5 -41.5v-901q0 -31 -11.5 -41t-46.5 -10h-129q-35 0 -46 10t-11 41z" />
<glyph unicode="&#xee;" horiz-adv-x="501" d="M-45 1227l186 223q18 23 52 23h116q31 0 51 -23l189 -223q29 -31 -4 -60l-58 -43q-35 -29 -69 4l-166 160h-6l-160 -160q-33 -35 -70 -4l-57 43q-33 29 -4 60zM129 51v901q0 31 11.5 41.5t45.5 10.5h129q35 0 46.5 -10.5t11.5 -41.5v-901q0 -31 -11.5 -41t-46.5 -10h-129 q-35 0 -46 10t-11 41z" />
<glyph unicode="&#xef;" horiz-adv-x="501" d="M-35 1270v49q0 45 30 72.5t79 27.5h20q51 0 82 -27.5t31 -72.5v-49q0 -100 -113 -101h-20q-109 1 -109 101zM129 51v901q0 31 11.5 41.5t45.5 10.5h129q35 0 46.5 -10.5t11.5 -41.5v-901q0 -31 -11.5 -41t-46.5 -10h-129q-35 0 -46 10t-11 41zM301 1270v49 q0 45 29.5 72.5t79.5 27.5h18q51 0 81 -26.5t30 -73.5v-49q0 -100 -111 -101h-18q-109 1 -109 101z" />
<glyph unicode="&#xf0;" horiz-adv-x="1071" d="M82 406v124q0 223 104 326q96 92 283 92q129 0 205 -49l6 6q-16 80 -55 133.5t-115 112.5l-70 -96q-18 -27 -51 -4l-59 41q-31 20 -13 49l66 90q-45 25 -117 57q-31 14 -10 43l63 105q14 20 46 8q76 -31 131 -58l65 93q20 31 60 6l49 -33q37 -25 14 -57l-59 -82 q162 -111 245.5 -273.5t83.5 -435.5v-92q0 -190 -16 -278.5t-80 -151.5q-100 -100 -338 -100q-246 0 -340 100q-98 105 -98 324zM326 416q0 -143 43 -193q43 -45 159 -45q94 0 142 49q37 41 37 152v145q0 121 -44.5 174.5t-138.5 53.5q-115 0 -159 -58q-39 -49 -39 -157 v-121z" />
<glyph unicode="&#xf1;" horiz-adv-x="1075" d="M123 51v905q0 47 49 48h76q27 0 38 -7.5t15 -29.5l10 -49h6q100 104 279 104q219 0 311 -137q55 -86 56 -275v-559q0 -31 -11.5 -41t-46.5 -10h-129q-35 0 -46 10t-11 41v572q0 117 -43 159.5t-135 42.5q-90 0 -131 -37q-43 -39 -43 -141v-596q0 -31 -11.5 -41t-46.5 -10 h-129q-35 0 -46 10t-11 41zM223 1243q78 172 209 172q63 0 125 -39l55 -35q47 -29 72 -28q43 0 88 71q20 33 57 7l45 -31q33 -23 15 -60q-90 -162 -217 -161q-61 0 -123 39l-55 36q-37 25 -62 25q-43 0 -88 -74q-20 -35 -57 -12l-51 31q-29 18 -13 59z" />
<glyph unicode="&#xf2;" horiz-adv-x="1024" d="M82 471v61q0 250 104 369q104 121 325.5 121t326.5 -121q104 -119 104 -369v-61q0 -250 -104 -369q-109 -121 -326 -120.5t-326 120.5q-104 119 -104 369zM255 1321q-3 14 13 39l72 102q25 37 63 11l328 -228q31 -20 2 -63l-43 -60q-29 -41 -74 -14l-331 182 q-27 17 -30 31zM330 481q0 -193 45 -250q45 -55 137 -55t137 55q45 57 45 250v43q0 190 -45 248q-43 55 -137 55t-137 -55q-45 -57 -45 -248v-43z" />
<glyph unicode="&#xf3;" horiz-adv-x="1024" d="M82 471v61q0 250 104 369q104 121 325.5 121t326.5 -121q104 -119 104 -369v-61q0 -250 -104 -369q-109 -121 -326 -120.5t-326 120.5q-104 119 -104 369zM330 481q0 -193 45 -250q45 -55 137 -55t137 55q45 57 45 250v43q0 190 -45 248q-43 55 -137 55t-137 -55 q-45 -57 -45 -248v-43zM356 1182q-29 43 2 63l328 228q39 27 64 -11l71 -102q16 -25 13 -39t-29 -31l-332 -182q-45 -27 -74 14z" />
<glyph unicode="&#xf4;" horiz-adv-x="1024" d="M82 471v61q0 250 104 369q104 121 325.5 121t326.5 -121q104 -119 104 -369v-61q0 -250 -104 -369q-109 -121 -326 -120.5t-326 120.5q-104 119 -104 369zM215 1227l186 223q18 23 52 23h116q31 0 52 -23l188 -223q29 -31 -4 -60l-57 -43q-35 -29 -70 4l-166 160h-6 l-160 -160q-33 -35 -70 -4l-57 43q-33 29 -4 60zM330 481q0 -193 45 -250q45 -55 137 -55t137 55q45 57 45 250v43q0 190 -45 248q-43 55 -137 55t-137 -55q-45 -57 -45 -248v-43z" />
<glyph unicode="&#xf5;" horiz-adv-x="1024" d="M82 471v61q0 250 104 369q104 121 325.5 121t326.5 -121q104 -119 104 -369v-61q0 -250 -104 -369q-109 -121 -326 -120.5t-326 120.5q-104 119 -104 369zM182 1243q78 172 209 172q63 0 125 -39l55 -35q47 -29 72 -28q43 0 88 71q20 33 57 7l46 -31q33 -23 14 -60 q-90 -162 -217 -161q-61 0 -123 39l-55 36q-37 25 -62 25q-43 0 -88 -74q-20 -35 -57 -12l-51 31q-29 18 -13 59zM330 481q0 -193 45 -250q45 -55 137 -55t137 55q45 57 45 250v43q0 190 -45 248q-43 55 -137 55t-137 -55q-45 -57 -45 -248v-43z" />
<glyph unicode="&#xf6;" horiz-adv-x="1024" d="M82 471v61q0 250 104 369q104 121 325.5 121t326.5 -121q104 -119 104 -369v-61q0 -250 -104 -369q-109 -121 -326 -120.5t-326 120.5q-104 119 -104 369zM227 1270v49q0 45 30 72.5t79 27.5h20q51 0 82 -27.5t31 -72.5v-49q0 -100 -113 -101h-20q-109 1 -109 101z M330 481q0 -193 45 -250q45 -55 137 -55t137 55q45 57 45 250v43q0 190 -45 248q-43 55 -137 55t-137 -55q-45 -57 -45 -248v-43zM563 1270v49q0 45 30 72.5t79 27.5h18q51 0 81 -26.5t30 -73.5v-49q0 -100 -111 -101h-18q-109 1 -109 101z" />
<glyph unicode="&#xf7;" d="M66 494v73q0 27 3 41.5t20 24.5t50 10h828q47 0 60 -18.5t13 -57.5v-78q0 -33 -13 -50t-25.5 -19t-34.5 -2h-828q-49 0 -61 16.5t-12 59.5zM408 145v33q0 129 131 129h22q129 0 129 -129v-33q0 -131 -129 -131h-22q-70 0 -100.5 31.5t-30.5 99.5zM408 885v33 q0 129 131 129h22q129 0 129 -129v-33q0 -131 -129 -131h-22q-70 0 -100.5 31.5t-30.5 99.5z" />
<glyph unicode="&#xf8;" horiz-adv-x="1024" d="M82 471v61q0 250 104 369q104 121 326 121q106 0 186 -29l62 111q25 47 80 16l28 -16q31 -16 35 -31.5t-12 -42.5l-66 -117l13 -12q104 -119 104 -369v-61q0 -250 -104 -369q-109 -121 -326 -120q-100 0 -184 26l-58 -102q-25 -47 -80 -17l-28 17q-31 16 -35 31.5 t12 42.5l60 108l-13 14q-104 119 -104 369zM330 481q0 -106 6 -145l264 477q-31 14 -88 14q-94 0 -137 -55q-45 -57 -45 -248v-43zM428 190q29 -14 84 -14q92 0 137 55q45 57 45 250v43q0 78 -6 138z" />
<glyph unicode="&#xf9;" horiz-adv-x="1044" d="M113 315v637q0 31 11 41.5t46 10.5h129q35 0 46 -10.5t11 -41.5v-612q0 -94 45 -127q37 -27 123 -27q88 0 123 27q41 33 41 127v612q0 31 11.5 41.5t45.5 10.5h129q35 0 46.5 -10.5t11.5 -41.5v-637q0 -193 -117 -268q-100 -66 -291 -65q-199 0 -295 65q-116 80 -116 268 zM236.5 1321q-3.5 14 13.5 39l72 102q25 37 63 11l328 -228q31 -20 2 -63l-43 -60q-29 -41 -74 -14l-332 182q-26 17 -29.5 31z" />
<glyph unicode="&#xfa;" horiz-adv-x="1044" d="M113 315v637q0 31 11 41.5t46 10.5h129q35 0 46 -10.5t11 -41.5v-612q0 -94 45 -127q37 -27 123 -27q88 0 123 27q41 33 41 127v612q0 31 11.5 41.5t45.5 10.5h129q35 0 46.5 -10.5t11.5 -41.5v-637q0 -193 -117 -268q-100 -66 -291 -65q-199 0 -295 65q-116 80 -116 268 zM350 1182q-29 43 2 63l328 228q39 27 63 -11l72 -102q16 -25 13 -39t-29 -31l-332 -182q-45 -27 -74 14z" />
<glyph unicode="&#xfb;" horiz-adv-x="1044" d="M113 315v637q0 31 11 41.5t46 10.5h129q35 0 46 -10.5t11 -41.5v-612q0 -94 45 -127q37 -27 123 -27q88 0 123 27q41 33 41 127v612q0 31 11.5 41.5t45.5 10.5h129q35 0 46.5 -10.5t11.5 -41.5v-637q0 -193 -117 -268q-100 -66 -291 -65q-199 0 -295 65q-116 80 -116 268 zM227 1227l187 223q18 23 51 23h117q31 0 51 -23l188 -223q29 -31 -4 -60l-57 -43q-35 -29 -70 4l-166 160h-6l-160 -160q-33 -35 -69 -4l-58 43q-33 29 -4 60z" />
<glyph unicode="&#xfc;" horiz-adv-x="1044" d="M113 315v637q0 31 11 41.5t46 10.5h129q35 0 46 -10.5t11 -41.5v-612q0 -94 45 -127q37 -27 123 -27q88 0 123 27q41 33 41 127v612q0 31 11.5 41.5t45.5 10.5h129q35 0 46.5 -10.5t11.5 -41.5v-637q0 -193 -117 -268q-100 -66 -291 -65q-199 0 -295 65q-116 80 -116 268 zM242 1270v49q0 45 29.5 72.5t78.5 27.5h21q51 0 81.5 -27.5t30.5 -72.5v-49q0 -100 -112 -101h-21q-108 1 -108 101zM578 1270v49q0 45 29.5 72.5t78.5 27.5h19q51 0 80.5 -26.5t29.5 -73.5v-49q0 -100 -110 -101h-19q-108 1 -108 101z" />
<glyph unicode="&#xfd;" horiz-adv-x="937" d="M23 956q-10 47 47 48h139q49 0 57 -43q94 -406 203 -750h8q129 373 197 750q8 43 57 43h137q57 0 47 -48q-143 -670 -436 -1302q-16 -37 -41 -37q-23 0 -47 10l-100 41q-41 20 -23 56q98 207 125 272q-88 27 -125 137q-128 368 -245 823zM322 1182q-29 43 2 63l327 228 q39 27 64 -11l71 -102q16 -25 13.5 -39t-29.5 -31l-332 -182q-45 -27 -73 14z" />
<glyph unicode="&#xfe;" horiz-adv-x="1114" d="M121 -311v1650q0 47 49 47h141q45 0 54 -32v-404q86 72 233 72q205 0 301 -111q94 -109 94 -362v-78q0 -262 -104 -379q-98 -111 -318 -110q-123 0 -206 55v-348q0 -31 -11.5 -41t-46.5 -10h-129q-35 0 -46 10t-11 41zM365 358q0 -98 43 -137q45 -41 141 -41 q100 0 147 58q49 59 49 233v59q0 180 -49 240q-45 53 -147.5 53t-145.5 -45q-39 -41 -38 -151v-269z" />
<glyph unicode="&#xff;" horiz-adv-x="937" d="M23 956q-10 47 47 48h139q49 0 57 -43q94 -406 203 -750h8q129 373 197 750q8 43 57 43h137q57 0 47 -48q-143 -670 -436 -1302q-16 -37 -41 -37q-23 0 -47 10l-100 41q-41 20 -23 56q98 207 125 272q-88 27 -125 137q-128 368 -245 823zM193 1270v49q0 45 29.5 72.5 t78.5 27.5h21q51 0 81.5 -27.5t30.5 -72.5v-49q0 -100 -112 -101h-21q-108 1 -108 101zM528 1270v49q0 45 30 72.5t79 27.5h18q51 0 81 -26.5t30 -73.5v-49q0 -100 -111 -101h-18q-109 1 -109 101z" />
<glyph unicode="&#x152;" horiz-adv-x="1761" d="M98 621v84q0 358 142 509q123 129 376 129q168 0 299 -96q10 16 31 33q57 45 211 45h471q35 0 43 -9t8 -40v-113q0 -29 -9 -39t-42 -10h-446q-61 0 -68 -61q-12 -143 -12 -265h459q35 0 43 -9t8 -40v-112q0 -29 -9.5 -39t-41.5 -10h-459q0 -164 14 -310q2 -35 17.5 -46 t48.5 -11h444q35 0 44 -9t9 -40v-113q0 -29 -9 -39t-44 -10h-469q-160 0 -219 49q-12 8 -29 33q-127 -100 -303 -100q-244 0 -364 127q-144 154 -144 512zM362 641q0 -264 68 -362q57 -84 203 -84q139 0 229 86q-14 143 -14 340v84q0 176 12 329q-90 96 -227 96 q-145 0 -203 -83q-68 -98 -68 -363v-43z" />
<glyph unicode="&#x153;" horiz-adv-x="1593" d="M82 471v61q0 250 104 369q104 121 326 121q188 0 303 -111q115 111 305 111q186 0 289 -92q104 -94 104 -346v-140q0 -33 -12 -46t-43 -13h-512q2 -121 51 -164q45 -41 181 -41q121 0 221 43q43 18 57 -33l27 -98q6 -23 -1 -35t-36 -22q-139 -53 -297 -53 q-229 0 -336 108q-98 -109 -301 -108q-217 0 -326 120q-104 119 -104 369zM330 481q0 -193 45 -250q45 -55 137 -55q94 0 139 55q45 57 45 250v43q0 190 -45 248q-43 55 -139 55q-94 0 -137 -55q-45 -57 -45 -248v-43zM942 578h301q27 0 27 28q0 137 -39 182q-37 39 -119 39 q-78 0 -117 -41q-53 -54 -53 -208z" />
<glyph unicode="&#x178;" horiz-adv-x="1021" d="M29 1282q-8 25 4 34t47 9h141q37 0 49.5 -6t18.5 -37q76 -328 215 -633h14q131 289 215 633q8 31 20.5 37t47.5 6h141q35 0 47 -9t4 -34q-150 -506 -354 -854v-377q0 -33 -10.5 -42t-44.5 -9h-148q-35 0 -45 9t-10 42v377q-205 362 -352 854zM227 1585v49q0 45 30 73 t79 28h20q51 0 82 -28t31 -73v-49q0 -100 -113 -100h-20q-109 0 -109 100zM563 1585v49q0 45 30 73t79 28h18q51 0 81 -27t30 -74v-49q0 -100 -111 -100h-18q-109 0 -109 100z" />
<glyph unicode="&#x2c6;" horiz-adv-x="757" d="M82 1227l186 223q18 23 51 23h117q31 0 51 -23l189 -223q29 -31 -4 -60l-58 -43q-35 -29 -69 4l-166 160h-6l-160 -160q-33 -35 -70 -4l-57 43q-33 29 -4 60z" />
<glyph unicode="&#x2dc;" horiz-adv-x="757" d="M45 1243q78 172 209 172q63 0 125 -39l55 -35q47 -29 72 -28q43 0 88 71q20 33 57 7l45 -31q33 -23 15 -60q-90 -162 -217 -161q-61 0 -123 39l-56 36q-37 25 -61 25q-43 0 -88 -74q-20 -35 -57 -12l-52 31q-28 18 -12 59z" />
<glyph unicode="&#x2000;" horiz-adv-x="901" />
<glyph unicode="&#x2001;" horiz-adv-x="1804" />
<glyph unicode="&#x2002;" horiz-adv-x="901" />
<glyph unicode="&#x2003;" horiz-adv-x="1804" />
<glyph unicode="&#x2004;" horiz-adv-x="600" />
<glyph unicode="&#x2005;" horiz-adv-x="450" />
<glyph unicode="&#x2006;" horiz-adv-x="299" />
<glyph unicode="&#x2007;" horiz-adv-x="299" />
<glyph unicode="&#x2008;" horiz-adv-x="225" />
<glyph unicode="&#x2009;" horiz-adv-x="360" />
<glyph unicode="&#x200a;" horiz-adv-x="98" />
<glyph unicode="&#x2010;" horiz-adv-x="681" d="M68 496v69q0 39 15 57.5t62 18.5h392q47 0 62 -18.5t15 -57.5v-73q0 -33 -14 -50.5t-26.5 -19.5t-36.5 -2h-392q-49 0 -63 17.5t-14 58.5z" />
<glyph unicode="&#x2011;" horiz-adv-x="681" d="M68 496v69q0 39 15 57.5t62 18.5h392q47 0 62 -18.5t15 -57.5v-73q0 -33 -14 -50.5t-26.5 -19.5t-36.5 -2h-392q-49 0 -63 17.5t-14 58.5z" />
<glyph unicode="&#x2012;" horiz-adv-x="681" d="M68 496v69q0 39 15 57.5t62 18.5h392q47 0 62 -18.5t15 -57.5v-73q0 -33 -14 -50.5t-26.5 -19.5t-36.5 -2h-392q-49 0 -63 17.5t-14 58.5z" />
<glyph unicode="&#x2013;" horiz-adv-x="1024" d="M0 496v69q0 39 15.5 57.5t62.5 18.5h866q47 0 63.5 -17.5t16.5 -58.5v-73q0 -39 -16.5 -55.5t-63.5 -16.5h-866q-49 0 -63.5 17.5t-14.5 58.5z" />
<glyph unicode="&#x2014;" horiz-adv-x="2048" d="M0 492v73q0 41 16.5 58.5t63.5 17.5h1888q47 0 63.5 -17.5t16.5 -58.5v-73q0 -39 -16.5 -55.5t-63.5 -16.5h-1888q-47 0 -63.5 16.5t-16.5 55.5z" />
<glyph unicode="&#x2018;" horiz-adv-x="522" d="M102 995v39q0 86 55.5 214t131.5 216q18 23 32.5 25t45.5 -14l51 -29q47 -27 18 -62q-43 -57 -88 -137q-37 -63 -2 -86l23 -14q45 -27 45 -100v-62q0 -119 -138 -119h-38q-136 0 -136 129z" />
<glyph unicode="&#x2019;" horiz-adv-x="522" d="M86 969q43 59 88 137q37 63 2 86l-22 14q-45 27 -45 101v61q0 119 137 119h39q135 0 135 -129v-39q0 -86 -55.5 -214t-131.5 -216q-18 -23 -32.5 -25t-44.5 15l-52 28q-47 27 -18 62z" />
<glyph unicode="&#x201a;" horiz-adv-x="522" d="M86 -248q43 59 88 137q37 63 2 86l-22 15q-45 27 -45 100v62q0 119 137 118h39q135 0 135 -129v-39q0 -86 -55.5 -214t-131.5 -216q-18 -23 -32.5 -24.5t-44.5 14.5l-52 29q-47 26 -18 61z" />
<glyph unicode="&#x201c;" horiz-adv-x="960" d="M102 995v39q0 86 55.5 214t131.5 216q18 23 32.5 25t45.5 -14l51 -29q47 -27 18 -62q-43 -57 -88 -137q-37 -63 -2 -86l23 -14q45 -27 45 -100v-62q0 -119 -138 -119h-38q-136 0 -136 129zM541 995v39q0 86 55 214t131 216q18 23 32.5 25t45.5 -14l51 -29q47 -27 18 -62 q-43 -57 -88 -137q-37 -63 -2 -86l23 -14q45 -27 45 -100v-62q0 -119 -137 -119h-39q-135 0 -135 129z" />
<glyph unicode="&#x201d;" horiz-adv-x="960" d="M86 979q43 57 88 137q37 63 2 86l-22 15q-45 27 -45 100v61q0 119 137 119h39q135 0 135 -129v-39q0 -86 -55.5 -214t-131.5 -216q-18 -23 -32.5 -25t-44.5 15l-52 29q-47 26 -18 61zM524 979q43 57 88 137q37 63 2 86l-22 15q-45 27 -45 100v61q0 119 137 119h39 q135 0 135 -129v-39q0 -86 -55 -214t-131 -216q-18 -23 -32.5 -25t-45.5 15l-51 29q-48 26 -19 61z" />
<glyph unicode="&#x201e;" horiz-adv-x="960" d="M86 -248q43 59 88 137q37 63 2 86l-22 15q-45 27 -45 100v62q0 119 137 118h39q135 0 135 -129v-39q0 -86 -55.5 -214t-131.5 -216q-18 -23 -32.5 -24.5t-44.5 14.5l-52 29q-47 26 -18 61zM524 -248q43 59 88 137q37 63 2 86l-22 15q-45 27 -45 100v62q0 119 137 118h39 q135 0 135 -129v-39q0 -86 -55 -214t-131 -216q-18 -23 -32.5 -24.5t-45.5 14.5l-51 29q-48 26 -19 61z" />
<glyph unicode="&#x2022;" horiz-adv-x="636" d="M74 534.5q0 102.5 70.5 174t173 71.5t174 -71.5t71.5 -174t-71.5 -173t-174 -70.5t-173 70.5t-70.5 173z" />
<glyph unicode="&#x2026;" horiz-adv-x="1290" d="M74 113v32q0 129 131 129h22q129 0 129 -129v-32q0 -131 -129 -131h-22q-70 0 -100.5 31.5t-30.5 99.5zM504 113v32q0 129 131 129h22q129 0 129 -129v-32q0 -131 -129 -131h-22q-70 0 -100.5 31.5t-30.5 99.5zM934 113v32q0 129 131 129h22q129 0 130 -129v-32 q0 -131 -130 -131h-22q-70 0 -100.5 31.5t-30.5 99.5z" />
<glyph unicode="&#x202f;" horiz-adv-x="360" />
<glyph unicode="&#x2039;" horiz-adv-x="653" d="M41 469v16q0 47 39 80l315 258q35 29 58.5 31t54.5 -23l49 -43q57 -53 2 -102l-225 -209l225 -205q35 -35 32 -56t-34 -50l-49 -43q-29 -27 -52.5 -25t-60.5 31l-315 260q-39 33 -39 80z" />
<glyph unicode="&#x203a;" horiz-adv-x="653" d="M62.5 216.5q-3.5 21.5 31.5 55.5l225 205l-225 209q-55 49 2 102l49 43q31 25 54.5 23t58.5 -31l315 -258q39 -33 39 -80v-16q0 -47 -39 -80l-315 -260q-37 -29 -60.5 -31t-52.5 25l-49 43q-30 29 -33.5 50.5z" />
<glyph unicode="&#x205f;" horiz-adv-x="450" />
<glyph unicode="&#x20ac;" d="M51 469v35q0 49 8.5 62.5t46.5 13.5h117v122v3h-117q-39 0 -47 12t-8 59v39q0 49 8.5 62.5t46.5 13.5h125q27 242 170 356q123 96 330 96q186 0 352 -92q31 -16 15 -59l-58 -119q-16 -39 -53 -16q-125 74 -262 73q-102 0 -162 -59q-51 -51 -67 -180h364q39 0 47 -13.5 t8 -62.5v-39q0 -47 -8 -59t-47 -12h-375v-125h375q39 0 47 -13.5t8 -62.5v-35q0 -47 -8 -59.5t-47 -12.5h-356q14 -82 53 -127q63 -76 215 -75q123 0 242 49q23 8 32 1t15 -36l22 -98q12 -53 -20 -68q-137 -61 -307 -61q-279 0 -398 118q-98 94 -125 297h-127 q-39 0 -47 12.5t-8 59.5z" />
<glyph unicode="&#x2122;" horiz-adv-x="1554" d="M78 1231v65q0 25 9 34t34 9h450q25 0 34 -9t9 -34v-65q0 -25 -10 -34t-37 -9h-127v-447q0 -43 -57 -43h-78q-55 0 -55 43v447h-125q-27 0 -37 9t-10 34zM649 741q6 295 31 543q2 35 14.5 45t44.5 10h174q39 0 53.5 -10t18.5 -39q43 -221 70 -342h6q16 68 69 342 q4 29 17.5 39t52.5 10h170q35 0 48.5 -10t15.5 -45q20 -240 26 -543q0 -43 -53 -43h-80q-55 0 -55 43q0 233 -8 416h-7q-35 -182 -79 -354q-6 -25 -20.5 -33t-51.5 -8h-98q-59 0 -70 41q-45 172 -80 354h-6q-8 -182 -8 -416q0 -43 -56 -43h-86q-53 0 -53 43z" />
<glyph unicode="&#xe000;" horiz-adv-x="1004" d="M0 1005h1005v-1005h-1005v1005z" />
<glyph unicode="&#xfb01;" horiz-adv-x="1175" d="M29 844v86q0 25 7 32t34 11l114 20v80q0 172 109.5 250t345.5 78q139 0 262 -25q25 -4 30 -11t3 -28l-21 -127q-4 -23 -11 -27.5t-30 -0.5q-92 18 -223 18q-123 0 -172 -30.5t-49 -110.5v-55h561q35 0 46.5 -10.5t11.5 -41.5v-901q0 -31 -11.5 -41t-46.5 -10h-129 q-35 0 -46 10t-11 41v748h-375v-748q0 -31 -11 -41t-46 -10h-129q-35 0 -46.5 10t-11.5 41v748h-104q-29 0 -40 9t-11 36z" />
<glyph unicode="&#xfb02;" horiz-adv-x="1259" d="M29 844v86q0 25 7 32t34 11l114 20v80q0 170 93.5 251t291.5 81q123 0 262 -25l152 6q33 2 45 -9t12 -42v-1063q0 -37 13.5 -52t46.5 -15h61q27 0 37 -10.5t10 -38.5v-107q0 -29 -10 -39t-37 -10h-137q-117 0 -168 49q-59 59 -59 201v934q-76 23 -162 22 q-115 0 -161 -30.5t-46 -116.5v-55h190q27 0 37.5 -9.5t10.5 -36.5v-118q0 -23 -10.5 -32t-41.5 -9h-186v-748q0 -31 -11 -41t-46 -10h-129q-35 0 -46.5 10t-11.5 41v748h-104q-29 0 -40 9t-11 36z" />
<glyph unicode="&#xfb03;" horiz-adv-x="1890" d="M1491 1251v13q0 70 40 105.5t104 35.5h10q143 0 143 -141v-13q0 -68 -40 -105.5t-103 -37.5h-10q-144 0 -144 143zM1518 51v901q0 31 11.5 41.5t45.5 10.5h129q35 0 46.5 -10.5t11.5 -41.5v-901q0 -31 -11.5 -41t-46.5 -10h-129q-35 0 -46 10t-11 41zM723 844v86 q0 25 7 32t34 11l114 20v80q0 106 19.5 162.5t66.5 97.5q82 72 269 72q104 0 182 -23q32 -8 32 -36q0 -6 -1 -13l-19 -112q-5 -31 -31 -31q-7 0 -16 2q-53 14 -115 14q-72 0 -106 -22q-37 -25 -37 -125v-55h190q27 0 37.5 -9.5t10.5 -36.5v-118q0 -23 -10.5 -32t-41.5 -9 h-186v-748q0 -31 -11 -41t-46 -10h-129q-35 0 -46.5 10t-11.5 41v748h-104q-29 0 -40 9t-11 36zM29 844v86q0 25 7 32t34 11l114 20v80q0 106 19.5 162.5t66.5 97.5q82 72 269 72q104 0 182 -23q32 -8 32 -36q0 -6 -1 -13l-19 -112q-5 -31 -31 -31q-7 0 -16 2 q-53 14 -115 14q-72 0 -106 -22q-37 -25 -37 -125v-55h190q27 0 37.5 -9.5t10.5 -36.5v-118q0 -23 -10.5 -32t-41.5 -9h-186v-748q0 -31 -11 -41t-46 -10h-129q-35 0 -46.5 10t-11.5 41v748h-104q-29 0 -40 9t-11 36z" />
<glyph unicode="&#xfb04;" horiz-adv-x="1972" d="M1510 250v1085q0 31 11 41t46 10h129q35 0 46.5 -10t11.5 -41v-1063q0 -37 13 -52t46 -15h61q27 0 37 -10.5t10 -38.5v-107q0 -29 -10 -39t-37 -10h-137q-117 0 -168 49q-59 60 -59 201zM723 844v86q0 25 7 32t34 11l114 20v80q0 106 19.5 162.5t66.5 97.5q82 72 269 72 q104 0 182 -23q32 -8 32 -36q0 -6 -1 -13l-19 -112q-5 -31 -31 -31q-7 0 -16 2q-53 14 -115 14q-72 0 -106 -22q-37 -25 -37 -125v-55h190q27 0 37.5 -9.5t10.5 -36.5v-118q0 -23 -10.5 -32t-41.5 -9h-186v-748q0 -31 -11 -41t-46 -10h-129q-35 0 -46.5 10t-11.5 41v748 h-104q-29 0 -40 9t-11 36zM29 844v86q0 25 7 32t34 11l114 20v80q0 106 19.5 162.5t66.5 97.5q82 72 269 72q104 0 182 -23q32 -8 32 -36q0 -6 -1 -13l-19 -112q-5 -31 -31 -31q-7 0 -16 2q-53 14 -115 14q-72 0 -106 -22q-37 -25 -37 -125v-55h190q27 0 37.5 -9.5 t10.5 -36.5v-118q0 -23 -10.5 -32t-41.5 -9h-186v-748q0 -31 -11 -41t-46 -10h-129q-35 0 -46.5 10t-11.5 41v748h-104q-29 0 -40 9t-11 36z" />
<glyph horiz-adv-x="460" />
</font>
</defs>
</svg>
